<svg width="26" height="26" viewBox="0 0 26 26" fill="none" xmlns="http://www.w3.org/2000/svg">
<path d="M19.721 9.35148C20.4273 10.6277 20.8301 12.0943 20.8301 13.6532C20.8301 18.5679 16.8317 22.5663 11.917 22.5663C7.00229 22.5663 3.00395 18.5679 3.00395 13.6533C3.00395 8.73864 7.00229 4.74018 11.917 4.74018C13.4368 4.74018 14.8688 5.12294 16.1222 5.7965L17.9576 3.96106C16.1631 2.83787 14.0863 2.23633 11.917 2.23633C8.86741 2.23633 6.00033 3.42389 3.84394 5.58028C1.68756 7.73667 0.5 10.6037 0.5 13.6533C0.5 16.7029 1.68756 19.57 3.84394 21.7263C6.00038 23.8827 8.86741 25.0703 11.917 25.0703C14.9665 25.0703 17.8336 23.8827 19.9899 21.7263C22.1464 19.5699 23.3339 16.7029 23.3339 13.6533C23.3339 11.4469 22.7119 9.33632 21.5514 7.52102L19.721 9.35148Z" stroke="#2D2D2D"/>
<path d="M12.797 11.5435C11.9751 11.2068 10.9918 11.3686 10.3252 12.0352C9.43588 12.9245 9.43588 14.3591 10.3252 15.2415C11.2141 16.1304 12.6487 16.1304 13.531 15.2415C14.198 14.5744 14.3594 13.5911 14.0227 12.7697L20.5357 6.25664L21.6203 6.39801L24.4894 3.5286L22.3208 3.23924L22.031 1.07031L19.1616 3.94629L19.3034 5.0306L12.797 11.5435Z" stroke="#2D2D2D"/>
<path d="M16.1562 12.9066C16.1985 13.1486 16.2208 13.3974 16.2208 13.6514C16.2208 16.0288 14.2867 17.963 11.9092 17.963C9.53181 17.963 7.5976 16.0289 7.5976 13.6514C7.5976 11.274 9.53176 9.33985 11.9092 9.33985C12.1183 9.33985 12.3238 9.3551 12.525 9.38397L14.5433 7.36571C13.7325 7.02467 12.8425 6.83594 11.9092 6.83594C8.15116 6.83594 5.09375 9.89335 5.09375 13.6514C5.09375 17.4094 8.15116 20.4669 11.9092 20.4669C15.6672 20.4669 18.7247 17.4094 18.7247 13.6514C18.7247 12.6779 18.519 11.7516 18.1497 10.9131L16.1562 12.9066Z" stroke="#2D2D2D"/>
</svg>
