<svg width="20" height="20" viewBox="0 0 20 20" fill="none" xmlns="http://www.w3.org/2000/svg">
<path fill-rule="evenodd" clip-rule="evenodd" d="M9.15625 4.83332C9.15625 4.37309 9.53304 4 9.99784 4H17.6563C18.1211 4 18.4979 4.37309 18.4979 4.83332C18.4979 5.29355 18.1211 5.66664 17.6563 5.66664H9.99784C9.53304 5.66664 9.15625 5.29355 9.15625 4.83332Z" fill="#2D60FF"/>
<path fill-rule="evenodd" clip-rule="evenodd" d="M1.5 9.50031C1.5 9.04008 1.87679 8.66699 2.34159 8.66699H16.4803C16.9451 8.66699 17.3219 9.04008 17.3219 9.50031C17.3219 9.96055 16.9451 10.3336 16.4803 10.3336H2.34159C1.87679 10.3336 1.5 9.96055 1.5 9.50031Z" fill="#2D60FF"/>
<path fill-rule="evenodd" clip-rule="evenodd" d="M1.5 14.1668C1.5 13.7066 1.87679 13.3335 2.34159 13.3335H9.41093C9.87573 13.3335 10.2525 13.7066 10.2525 14.1668C10.2525 14.627 9.87573 15.0001 9.41093 15.0001H2.34159C1.87679 15.0001 1.5 14.627 1.5 14.1668Z" fill="#2D60FF"/>
</svg>
