<svg width="20" height="18" viewBox="0 0 20 18" fill="none" xmlns="http://www.w3.org/2000/svg">
<path d="M9.93652 0.500977C9.65686 1.28198 9.50098 2.1221 9.50098 3C9.50098 6.98269 12.6207 10.2476 16.5439 10.4844C16.7213 12.3387 17.5996 14.0724 19.0449 15.2842C19.3618 15.5506 19.5262 15.9356 19.498 16.3379L19.4736 16.5117C19.3569 17.075 18.7932 17.4999 18.1357 17.5H1.86035C1.23355 17.4999 0.687923 17.114 0.544922 16.5859C0.4143 16.102 0.575425 15.6115 0.935547 15.3027C2.56846 13.9222 3.50092 11.9147 3.50098 9.78809V7C3.50098 3.43144 6.37625 0.535342 9.93652 0.500977Z" stroke="#2D60FF"/>
</svg>
