<svg width="25" height="25" viewBox="0 0 25 25" fill="none" xmlns="http://www.w3.org/2000/svg">
<path d="M1.18182 14.2643L2.77495 14.5254C3.02664 15.7453 3.50833 16.9061 4.19426 17.9458L3.25083 19.2625C3.05508 19.529 3.05844 19.8927 3.25912 20.1555C3.497 20.4463 3.74978 20.7246 4.01637 20.9893C4.28533 21.2587 4.56258 21.5069 4.84811 21.7469C5.1111 21.948 5.47525 21.9514 5.74193 21.7552L7.0578 20.8114C8.09651 21.4977 9.25652 21.9797 10.4758 22.2315L10.7365 23.8258C10.7861 24.152 11.0464 24.4055 11.3737 24.4465C11.6004 24.4722 11.8289 24.4879 12.0623 24.4995C12.1756 24.505 12.2863 24.4641 12.3688 24.3862C12.4512 24.3082 12.4983 24.2 12.4992 24.0865V20.7704C12.498 20.5469 12.3205 20.3642 12.097 20.3566C7.91541 20.1398 4.63606 16.6861 4.63606 12.499C4.63606 8.31178 7.91541 4.85807 12.097 4.64129C12.3205 4.63372 12.498 4.45107 12.4992 4.22749V0.914257C12.4987 0.800844 12.4518 0.692558 12.3696 0.614426C12.2873 0.536295 12.1768 0.495167 12.0635 0.500453C11.8309 0.510105 11.601 0.526404 11.3737 0.54927C11.0462 0.593883 10.787 0.84838 10.7364 1.17492L10.4757 2.76927C9.25652 3.02144 8.09655 3.50352 7.05776 4.18981L5.74189 3.24554C5.47521 3.04935 5.11106 3.05272 4.84807 3.25383C4.55809 3.49203 4.28048 3.74493 4.01633 4.01148C3.74773 4.27426 3.49488 4.55267 3.25908 4.84525C3.05756 5.1084 3.0542 5.47302 3.25079 5.73986L4.19422 7.05656C3.50845 8.09589 3.02676 9.25625 2.77491 10.4757L1.18178 10.7364C0.85556 10.7862 0.602101 11.0466 0.561092 11.3741C0.479636 12.1167 0.479636 12.8659 0.561092 13.6085C0.597896 13.9414 0.851435 14.2093 1.18182 14.2643Z" fill="white" stroke="#2D2D2D"/>
<path d="M11.999 18.1836C9.05917 17.9277 6.78906 15.466 6.78906 12.5C6.78928 9.53416 9.05925 7.0723 11.999 6.81641V18.1836Z" fill="white" stroke="#2D2D2D"/>
<path d="M16.2227 1.82275C16.5838 1.82275 16.8921 2.08309 16.9531 2.43896C17.0141 2.7948 16.8101 3.14286 16.4697 3.26318L16.2227 3.3501L15.9756 3.26318C15.6352 3.14286 15.4312 2.79479 15.4922 2.43896C15.5532 2.08312 15.8616 1.82278 16.2227 1.82275Z" fill="white" stroke="#2D2D2D"/>
<mask id="path-4-inside-1_1686_30767" fill="white">
<path d="M13.3262 9.1904H17.4641C17.6927 9.1904 17.8779 9.00514 17.8779 8.7766C17.8779 8.54805 17.6927 8.36279 17.4641 8.36279H13.3262V9.1904Z"/>
</mask>
<path d="M13.3262 9.1904H17.4641C17.6927 9.1904 17.8779 9.00514 17.8779 8.7766C17.8779 8.54805 17.6927 8.36279 17.4641 8.36279H13.3262V9.1904Z" fill="white"/>
<path d="M13.3262 9.1904H12.3262V10.1904H13.3262V9.1904ZM13.3262 8.36279V7.36279H12.3262V8.36279H13.3262ZM13.3262 9.1904V10.1904H17.4641V9.1904V8.1904H13.3262V9.1904ZM17.4641 9.1904V10.1904C18.245 10.1904 18.8779 9.55744 18.8779 8.7766H17.8779H16.8779C16.8779 8.45285 17.1404 8.1904 17.4641 8.1904V9.1904ZM17.8779 8.7766H18.8779C18.8779 7.99575 18.245 7.36279 17.4641 7.36279V8.36279V9.36279C17.1404 9.36279 16.8779 9.10035 16.8779 8.7766H17.8779ZM17.4641 8.36279V7.36279H13.3262V8.36279V9.36279H17.4641V8.36279ZM13.3262 8.36279H12.3262V9.1904H13.3262H14.3262V8.36279H13.3262Z" fill="#2D2D2D" mask="url(#path-4-inside-1_1686_30767)"/>
<path d="M16.4697 21.7378C16.8101 21.8581 17.0141 22.2062 16.9531 22.562C16.8921 22.9179 16.5838 23.1782 16.2227 23.1782C15.8616 23.1782 15.5532 22.9179 15.4922 22.562C15.4313 22.2062 15.6352 21.8581 15.9756 21.7378L16.2227 21.6499L16.4697 21.7378Z" fill="white" stroke="#2D2D2D"/>
<path d="M20.6074 18.0127C20.9478 18.133 21.1529 18.482 21.0918 18.8379C21.0306 19.1936 20.7213 19.4531 20.3604 19.4531C19.9995 19.4529 19.6911 19.1935 19.6299 18.8379C19.5688 18.482 19.7729 18.1331 20.1133 18.0127L20.3604 17.9258L20.6074 18.0127Z" fill="white" stroke="#2D2D2D"/>
<path d="M23.6719 11.7588C24.0478 11.7581 24.364 12.0397 24.4072 12.4131C24.4505 12.7865 24.207 13.1325 23.8408 13.2178C23.4747 13.303 23.1027 13.1002 22.9766 12.7461L22.8887 12.501L22.9775 12.2529C23.0818 11.9583 23.3594 11.7606 23.6719 11.7588Z" fill="white" stroke="#2D2D2D"/>
<mask id="path-9-inside-2_1686_30767" fill="white">
<path d="M17.8779 16.2244C17.8779 15.9958 17.6927 15.8105 17.4641 15.8105H13.3262V16.6381H17.4641C17.6927 16.6382 17.8779 16.4529 17.8779 16.2244Z"/>
</mask>
<path d="M17.8779 16.2244C17.8779 15.9958 17.6927 15.8105 17.4641 15.8105H13.3262V16.6381H17.4641C17.6927 16.6382 17.8779 16.4529 17.8779 16.2244Z" fill="white"/>
<path d="M13.3262 15.8105V14.8105H12.3262V15.8105H13.3262ZM13.3262 16.6381H12.3262V17.6381H13.3262V16.6381ZM17.4641 16.6381L17.4643 15.6381H17.4641V16.6381ZM17.8779 16.2244H18.8779C18.8779 15.4435 18.245 14.8105 17.4641 14.8105V15.8105V16.8105C17.1404 16.8105 16.8779 16.5481 16.8779 16.2244H17.8779ZM17.4641 15.8105V14.8105H13.3262V15.8105V16.8105H17.4641V15.8105ZM13.3262 15.8105H12.3262V16.6381H13.3262H14.3262V15.8105H13.3262ZM13.3262 16.6381V17.6381H17.4641V16.6381V15.6381H13.3262V16.6381ZM17.4641 16.6381L17.464 17.6381C18.245 17.6383 18.8779 17.0052 18.8779 16.2244H17.8779H16.8779C16.8779 15.9006 17.1404 15.6381 17.4643 15.6381L17.4641 16.6381Z" fill="#2D2D2D" mask="url(#path-9-inside-2_1686_30767)"/>
<path d="M20.3604 5.54688C20.7215 5.54688 21.0307 5.80721 21.0918 6.16309C21.1527 6.51888 20.9478 6.86699 20.6074 6.9873L20.3604 7.07422L20.1133 6.9873C19.7731 6.86691 19.569 6.51882 19.6299 6.16309C19.6909 5.80734 19.9994 5.54705 20.3604 5.54688Z" fill="white" stroke="#2D2D2D"/>
</svg>
