<svg width="24" height="21" viewBox="0 0 24 21" fill="none" xmlns="http://www.w3.org/2000/svg">
<path d="M9.74023 19.5693C9.78175 19.6233 9.77693 19.7018 9.72168 19.752L8.95508 20.4482C8.92178 20.4784 8.89519 20.4874 8.85059 20.4834C8.80744 20.4795 8.78208 20.4663 8.75293 20.4287V20.4277L6.63086 17.6816L7.77832 17.0186L9.74023 19.5693ZM6.66895 15.4229L4.57812 16.6299C3.2836 17.3772 1.60994 16.929 0.862305 15.6348C0.114915 14.3402 0.562994 12.6665 1.85742 11.9189L3.94824 10.71L6.66895 15.4229ZM11.3779 1.29785C11.8536 1.0234 12.4704 1.18842 12.7451 1.66406L14.9434 5.47168L15.2295 5.96777L15.6826 5.61816C15.7276 5.5834 15.7754 5.55078 15.8262 5.52148C16.4365 5.16926 17.217 5.37798 17.5693 5.98828C17.9217 6.59866 17.7119 7.37907 17.1016 7.73145C17.0508 7.76075 16.9988 7.78608 16.9463 7.80762L16.417 8.02539L16.7031 8.52051L18.9014 12.3281C19.176 12.8038 19.0109 13.4206 18.5352 13.6953C18.092 13.9512 17.5246 13.826 17.2275 13.4209L17.1055 13.2529L16.8994 13.2217C14.4674 12.8518 11.3733 13.2211 8.29004 14.3555L5.68262 9.83984C8.20688 7.74072 10.0814 5.25999 10.9775 2.96777L11.0537 2.77051L10.9668 2.5791C10.7571 2.11737 10.9311 1.5558 11.3779 1.29785ZM20.1328 8.11621H22.4033C22.4917 8.11641 22.5621 8.18815 22.5625 8.27344C22.5627 8.36141 22.491 8.43163 22.4062 8.43164H20.1357C20.047 8.43154 19.9767 8.35996 19.9766 8.27441C19.9764 8.18651 20.0481 8.11621 20.1328 8.11621ZM21.5205 3.52051C21.5978 3.47615 21.6967 3.50298 21.7412 3.58008C21.7856 3.65738 21.7587 3.75627 21.6816 3.80078L19.8174 4.87695C19.7402 4.92116 19.6422 4.89437 19.5977 4.81738C19.553 4.74003 19.579 4.64126 19.6562 4.59668L21.5205 3.52051ZM18.0869 0.521484C18.1607 0.564508 18.1878 0.661513 18.1436 0.738281L17.0078 2.7041C16.9654 2.77751 16.8691 2.80488 16.793 2.76074C16.719 2.7178 16.6921 2.62081 16.7363 2.54395L17.8711 0.577148C17.9135 0.503925 18.0108 0.477351 18.0869 0.521484Z" stroke="#2D2D2D"/>
</svg>
