<svg width="24" height="23" viewBox="0 0 24 23" fill="none" xmlns="http://www.w3.org/2000/svg">
<path d="M9.5 0.5C13.9109 0.5 17.4999 4.08913 17.5 8.5C17.5 10.9263 16.3783 13.1758 14.5605 14.6709L13.4463 13.5576C12.7324 12.8407 11.684 12.5935 10.7441 12.8594C10.7473 12.823 10.75 12.7862 10.75 12.749V12.3438C11.767 11.9846 12.5 11.0183 12.5 9.87012C12.5 8.42497 11.325 7.25 9.87988 7.25H9.12012C9.05946 7.25 9 7.20121 9 7.12012C9 7.05426 9.05426 7 9.12012 7H11.25C11.9401 7 12.5 6.44015 12.5 5.75C12.5 5.05989 11.9401 4.5 11.25 4.5H10.75V4.25C10.75 3.55988 10.1901 3 9.5 3C8.80993 3.00007 8.25003 3.55992 8.25 4.25V4.65527C7.23302 5.01438 6.5001 5.98178 6.5 7.12988C6.5 8.57504 7.67496 9.75 9.12012 9.75H9.87988C9.94047 9.75 9.99987 9.79894 10 9.87988C10 9.94575 9.94575 10 9.87988 10H7.75C7.05996 10.0001 6.50009 10.56 6.5 11.25C6.5 11.9401 7.0599 12.4999 7.75 12.5H8.25V12.749C8.25 13.2358 8.52921 13.6569 8.93555 13.8633L6.02246 15.6924C5.35098 15.3726 4.72521 14.9664 4.16895 14.4688C2.47224 12.9527 1.5 10.7769 1.5 8.5C1.50007 4.08917 5.08917 0.50007 9.5 0.5Z" stroke="#2D2D2D"/>
<path d="M19 11.4995H23C23.2765 11.4995 23.5 11.7233 23.5 11.9995V15.9995C23.5 16.2018 23.3782 16.384 23.1914 16.4614C23.1286 16.4871 23.0638 16.4995 23 16.4995C22.8701 16.4995 22.742 16.4485 22.6465 16.353L21 14.7065L20.6465 15.0601L15.8525 19.853C15.6568 20.0488 15.3413 20.0488 15.1455 19.853L11.4258 16.1333L11.0889 16.3413L1.2627 22.4243L1.26172 22.4253C1.17986 22.4762 1.09087 22.4995 1.00098 22.4995C0.831886 22.4995 0.669252 22.4153 0.575195 22.2632C0.430083 22.0285 0.502429 21.7201 0.737305 21.5747L11.2373 15.0747C11.4335 14.9531 11.6912 14.9827 11.8525 15.145L15.5 18.7925L20.293 13.9995L18.6465 12.353C18.5032 12.2098 18.4607 11.9949 18.5381 11.8081V11.8071C18.6145 11.6221 18.7976 11.4995 19 11.4995Z" stroke="#2D2D2D"/>
</svg>
