<svg width="24" height="20" viewBox="0 0 24 20" fill="none" xmlns="http://www.w3.org/2000/svg">
<path d="M5.40723 9.61816H5.97559L5.59082 14.2061C5.57379 14.4067 5.62798 14.593 5.72168 14.7461V14.7471L6.95508 16.9492L6.95605 16.9512C7.19459 17.3731 7.73392 17.5311 8.16406 17.2852C8.31283 17.2013 8.42783 17.0804 8.50293 16.9443L8.50195 16.9434L9.7334 14.749H9.90918L9.86426 14.207L9.47949 9.61816H10.0479C12.6597 9.61816 14.8175 11.7028 14.9502 14.3047L14.9561 14.5586V19.1709C14.9561 19.3522 14.8066 19.4989 14.6338 19.499H12.5664V16.7412C12.5664 16.281 12.2166 15.9018 11.7686 15.8564L11.6777 15.8525C11.1843 15.8528 10.791 16.2534 10.791 16.7412V19.499H4.66406V16.7412C4.66406 16.2835 4.31827 15.9024 3.86914 15.8564L3.77734 15.8525C3.28469 15.8527 2.89062 16.253 2.89062 16.7412V19.499H0.824219C0.649405 19.499 0.5 19.3517 0.5 19.1709V14.5576C0.500264 11.8394 2.71219 9.61873 5.40723 9.61816ZM17.0361 5.35156L17.3311 6.26465L17.332 6.26562C17.4101 6.50515 17.5838 6.69401 17.8164 6.78613L17.9199 6.81934C18.44 6.95584 18.9322 7.16279 19.3828 7.42969V7.43066C19.6373 7.58244 19.9354 7.58609 20.1895 7.45898L20.1943 7.45703L21.042 7.02148L21.8408 7.8252L21.4062 8.68359C21.2899 8.91217 21.2853 9.16899 21.3828 9.39551L21.4316 9.49121C21.6974 9.94458 21.904 10.4413 22.04 10.9658V10.9668C22.1023 11.2129 22.2664 11.4112 22.4922 11.5176L22.5928 11.5576L23.5 11.8545V12.9961L22.5918 13.2939C22.3112 13.385 22.1131 13.6076 22.041 13.8799L22.04 13.8838C21.9056 14.4083 21.6988 14.9046 21.4326 15.3594C21.2854 15.6093 21.2746 15.906 21.4062 16.166L21.8418 17.0244L21.042 17.8291L20.1943 17.3945C19.9323 17.2599 19.6327 17.2732 19.3848 17.4199C18.9335 17.6876 18.44 17.8961 17.9189 18.0312L17.915 18.0322C17.6381 18.1064 17.4217 18.3096 17.332 18.585V18.5859L17.0371 19.5H16.7051C16.7219 19.3931 16.7314 19.2832 16.7314 19.1719V17.0938C17.9137 17.0283 18.9779 16.52 19.7617 15.7305L19.7607 15.7295C20.6029 14.8835 21.123 13.7147 21.123 12.4248C21.123 11.1354 20.6032 9.96579 19.7617 9.11914C18.9212 8.27347 17.7572 7.74808 16.4717 7.74805C15.3465 7.74805 14.3152 8.15233 13.5117 8.81934C12.8028 8.385 12.0079 8.07875 11.1582 7.93457L11.1016 7.82422L11.9004 7.02148L12.75 7.45703L12.7529 7.45898C12.9768 7.57161 13.2333 7.58008 13.4629 7.48047L13.5596 7.43164C14.0116 7.16373 14.5054 6.95504 15.0264 6.81836L15.0254 6.81738C15.3074 6.74463 15.5243 6.54046 15.6133 6.26465L15.9072 5.35156H17.0361ZM21.8936 17.127V17.1289C21.8927 17.1272 21.8924 17.1248 21.8916 17.123L21.8936 17.127ZM16.4707 9.52734C17.2645 9.52737 17.9838 9.8517 18.5039 10.375C19.0255 10.9 19.3486 11.625 19.3486 12.4248C19.3486 13.2262 19.025 13.9505 18.5039 14.4736L18.5029 14.4746C18.0404 14.941 17.4205 15.2463 16.7305 15.3086V14.5576C16.7303 12.7917 16.0423 11.1815 14.9268 9.98047C15.3734 9.69359 15.9027 9.52734 16.4707 9.52734ZM8.07227 14.0869L7.72754 14.7031L7.38184 14.0869L7.72754 9.95898L8.07227 14.0869ZM7.72852 0.5C9.55128 0.500211 11.0459 1.99822 11.0459 3.84082C11.0459 5.68211 9.55115 7.18143 7.72852 7.18164C5.90528 7.18164 4.41115 5.68228 4.41113 3.84082C4.41113 1.99809 5.90558 0.5 7.72852 0.5Z" stroke="#2D2D2D"/>
</svg>
