<svg width="23" height="18" viewBox="0 0 23 18" fill="none" xmlns="http://www.w3.org/2000/svg">
<path d="M5.41797 16.5977C5.4508 16.656 5.42943 16.7336 5.37109 16.7666L4.18164 17.4395C4.12322 17.4725 4.04576 17.451 4.0127 17.3926L1.06445 12.1846C1.24222 12.2932 1.4575 12.343 1.67969 12.3105C2.14264 12.2428 2.47405 11.8428 2.46973 11.3877L5.41797 16.5977ZM6.50391 9.32129C7.31212 8.85306 7.98568 8.61535 8.67773 8.83984C9.62067 9.14561 11.3363 9.86918 13.0518 10.1865C13.4469 10.3229 13.6467 10.6986 13.5547 11.042C13.4994 11.2484 13.4114 11.3542 13.332 11.4082C13.2568 11.4593 13.1389 11.497 12.9492 11.4736C12.0544 11.2367 11.1632 10.9953 10.2656 10.7549V10.7539L10.1777 10.7354C9.76952 10.6696 9.36935 10.9015 9.22266 11.2881L9.19531 11.373C9.07071 11.8394 9.34722 12.3184 9.81348 12.4434V12.4443C10.7257 12.6887 11.6411 12.9356 12.5566 13.1777L12.5586 13.1787C13.3037 13.373 14.1926 13.1139 14.7012 12.4893C14.9063 12.4199 15.1066 12.3295 15.3018 12.2158L19.541 9.74707C20.3199 9.29345 20.873 9.16389 21.2354 9.17676C21.5772 9.1889 21.761 9.32567 21.8643 9.47754C21.9791 9.64664 22.0256 9.88448 21.9863 10.1191C21.9464 10.3568 21.832 10.5221 21.7109 10.5967L14.0176 15.334C13.4317 15.6945 12.7998 15.7795 12.125 15.5986L6.54492 14.1035L6.34473 14.0498L6.16602 14.1533L6.07422 14.2051L4.09863 10.7139L6.50391 9.32129ZM0.739258 10.9443C0.662639 11.0812 0.620605 11.238 0.62207 11.4023L0.515625 11.2139C0.482735 11.1555 0.504144 11.0779 0.5625 11.0449L0.739258 10.9443ZM1.75195 10.3721C1.81038 10.339 1.88784 10.3605 1.9209 10.4189L2.02637 10.6055C1.89303 10.5243 1.73873 10.4768 1.57617 10.4717L1.75195 10.3721ZM13.0928 4.81348C14.4642 4.81367 15.6225 5.72378 16 6.97266H10.1846C10.5621 5.72364 11.7211 4.81348 13.0928 4.81348ZM18.7783 4.54785C20.1499 4.54785 21.3089 5.45713 21.6865 6.70605H17.7402C17.5973 6.12408 17.349 5.58707 17.0176 5.11328C17.5147 4.75841 18.121 4.54791 18.7783 4.54785ZM7.40625 4.54785C8.06329 4.5479 8.66896 4.75871 9.16602 5.11328C8.83475 5.58696 8.58724 6.12429 8.44434 6.70605H4.49805C4.87564 5.45714 6.03466 4.54785 7.40625 4.54785ZM13.0928 0.766602C13.8047 0.766837 14.3818 1.34375 14.3818 2.05566C14.3818 2.76764 13.8047 3.34449 13.0928 3.34473C12.3806 3.34473 11.8027 2.76779 11.8027 2.05566C11.8029 1.34358 12.3808 0.766602 13.0928 0.766602ZM7.40625 0.5C8.11818 0.500095 8.69513 1.07716 8.69531 1.78906C8.69531 2.50113 8.11829 3.07901 7.40625 3.0791C6.69413 3.0791 6.11621 2.50119 6.11621 1.78906C6.1164 1.07714 6.69425 0.5 7.40625 0.5ZM18.7783 0.5C19.4903 0.5 20.0682 1.0771 20.0684 1.78906C20.0684 2.50119 19.4904 3.0791 18.7783 3.0791C18.0663 3.07892 17.4893 2.50108 17.4893 1.78906C17.4894 1.07725 18.0665 0.500178 18.7783 0.5Z" stroke="#2D2D2D"/>
</svg>
