<svg width="21" height="22" viewBox="0 0 21 22" fill="none" xmlns="http://www.w3.org/2000/svg">
<path d="M10.3555 0.5C11.5032 0.5 12.4336 1.43041 12.4336 2.57812C12.4336 3.72584 11.5032 4.65625 10.3555 4.65625C9.20775 4.65625 8.27734 3.72584 8.27734 2.57812C8.27734 1.43041 9.20775 0.5 10.3555 0.5Z" stroke="#2D2D2D"/>
<path d="M12.8701 6.14453C13.4002 6.7402 13.7227 7.52234 13.7227 8.37891V10.3125C13.7227 10.3923 13.6579 10.457 13.5781 10.457H7.13281C7.053 10.457 6.98828 10.3923 6.98828 10.3125V8.37891C6.98828 7.52257 7.30999 6.74014 7.83984 6.14453C9.34699 7.21139 11.3644 7.20985 12.8701 6.14453Z" stroke="#2D2D2D"/>
<path d="M4.63672 19.3848L4.48828 19.2383L1.24609 16.0391C0.768693 15.5679 0.5 14.9247 0.5 14.2539V8.05664C0.5 7.60897 0.862881 7.24609 1.31055 7.24609C1.75821 7.24609 2.12109 7.60897 2.12109 8.05664V14.5801L2.26562 14.7266L5.00586 17.4912C5.39602 17.8848 6.02471 17.9062 6.44141 17.541C6.89717 17.1415 6.92066 16.4404 6.49219 16.0117L3.98926 13.5088C4.77513 13.021 5.80355 13.0775 6.53223 13.6816L6.67773 13.8145L8.72363 15.8379C9.03568 16.1474 9.21094 16.5693 9.21094 17.0088V21.3555C9.21094 21.4353 9.14622 21.5 9.06641 21.5H4.78125C4.70144 21.5 4.63672 21.4353 4.63672 21.3555V19.3848Z" stroke="#2D2D2D"/>
<path d="M19.4004 7.24609C19.8481 7.24609 20.2109 7.60897 20.2109 8.05664V14.2539C20.2109 14.9247 19.9422 15.5679 19.4648 16.0391L16.2227 19.2383L16.0742 19.3848V21.3555C16.0742 21.4353 16.0095 21.5 15.9297 21.5H11.6445C11.5647 21.5 11.5 21.4353 11.5 21.3555V17.0088C11.5 16.5693 11.6753 16.1474 11.9873 15.8379L14.0332 13.8145C14.7649 13.0889 15.8809 12.988 16.7207 13.5088L14.2188 16.0117C13.7903 16.4404 13.8138 17.1415 14.2695 17.541C14.6862 17.9062 15.3149 17.8848 15.7051 17.4912L18.4453 14.7266L18.5898 14.5801V8.05664C18.5898 7.60897 18.9527 7.24609 19.4004 7.24609Z" stroke="#2D2D2D"/>
</svg>
