<svg width="22" height="22" viewBox="0 0 22 22" fill="none" xmlns="http://www.w3.org/2000/svg">
<path fill-rule="evenodd" clip-rule="evenodd" d="M17.1798 12.3441C19.5141 12.3551 21.4402 14.1805 21.6124 16.4752C21.626 16.657 21.484 16.81 21.3017 16.81H17.2526C17.1742 16.5016 16.9374 16.2548 16.6349 16.1621L17.1798 12.3441ZM5.62998 16.81H16.37C16.4926 16.81 16.5929 16.9103 16.5929 17.033V18.0689C16.5929 18.1915 16.4926 18.2919 16.37 18.2919H5.62998C5.50735 18.2919 5.40702 18.1915 5.40702 18.0689V17.033C5.40702 16.9103 5.50735 16.81 5.62998 16.81ZM5.97167 10.8748C5.61787 10.8748 5.34918 11.1846 5.39915 11.5348L6.05396 16.1226H15.946L16.6008 11.5348C16.6508 11.1846 16.3821 10.8748 16.0283 10.8748H5.97167ZM11 12.7354C11.4215 12.7354 11.7633 13.0771 11.7633 13.4987C11.7633 13.9202 11.4215 14.2619 11 14.2619C10.5785 14.2619 10.2367 13.9202 10.2367 13.4987C10.2367 13.0771 10.5785 12.7354 11 12.7354ZM14.2569 10.1873C12.4867 8.29764 9.51324 8.29764 7.74306 10.1873H14.2569ZM11 3.7085C12.3331 3.7085 13.4138 4.7892 13.4138 6.12231C13.4138 7.45541 12.3331 8.53612 11 8.53612C9.6669 8.53612 8.58619 7.45541 8.58619 6.12231C8.58619 4.7892 9.6669 3.7085 11 3.7085ZM4.84125 7.2832C6.17435 7.2832 7.25506 8.3639 7.25506 9.69701L7.25497 9.70294C7.11051 9.85582 6.97516 10.0176 6.84995 10.1873H5.97167C5.19995 10.1873 4.60952 10.8679 4.71857 11.6319L4.78681 12.1101C3.47888 12.0812 2.42748 11.0119 2.42748 9.69705C2.42744 8.3639 3.50814 7.2832 4.84125 7.2832ZM0.387623 16.4752C0.559799 14.1805 2.48592 12.3551 4.82019 12.3441L5.36512 16.1621C5.06258 16.2548 4.82578 16.5016 4.7474 16.81H0.69833C0.515971 16.81 0.374002 16.657 0.387623 16.4752ZM17.1588 7.2832C18.4919 7.2832 19.5726 8.3639 19.5726 9.69701C19.5726 11.0119 18.5212 12.0811 17.2132 12.1101L17.2815 11.6319C17.3905 10.8678 16.8001 10.1872 16.0284 10.1872H15.1501C15.0248 10.0175 14.8895 9.85578 14.7451 9.70289L14.745 9.69701C14.7449 8.3639 15.8256 7.2832 17.1588 7.2832Z" fill="#2D60FF"/>
</svg>
