<svg width="338" height="394" viewBox="0 0 338 394" fill="none" xmlns="http://www.w3.org/2000/svg">
<path d="M234.14 7.39121C248.459 -7.52872 266.852 12.616 264.432 26.5453C262.012 40.4745 247.312 44.3145 240.383 37.286C233.453 30.2576 234.14 7.39121 234.14 7.39121Z" fill="#4A4848"/>
<path d="M258.185 17.8994C268.774 6.86591 282.376 21.7632 280.586 32.064C278.796 42.3649 267.926 45.2046 262.801 40.007C257.677 34.8093 258.185 17.8994 258.185 17.8994Z" fill="#4A4848"/>
<path d="M273.006 30.2681C281.7 21.2094 292.867 33.4403 291.398 41.8975C289.929 50.3547 281.004 52.6862 276.796 48.4188C272.589 44.1515 273.006 30.2681 273.006 30.2681Z" fill="#4A4848"/>
<path d="M282.27 43.8356C289.074 36.7458 297.815 46.3184 296.665 52.9373C295.515 59.5563 288.53 61.3811 285.237 58.0412C281.944 54.7014 282.27 43.8356 282.27 43.8356Z" fill="#4A4848"/>
<path d="M287.336 57.7853C292.918 51.9696 300.088 59.822 299.144 65.2516C298.201 70.6811 292.471 72.178 289.77 69.4383C287.069 66.6986 287.336 57.7853 287.336 57.7853Z" fill="#4A4848"/>
<path d="M260.554 83.7132C261.155 80.595 264.21 78.0669 267.378 78.0669C270.545 78.0669 272.625 80.595 272.023 83.7132L213.513 387.088C212.912 390.207 209.857 392.735 206.69 392.735C203.522 392.735 201.442 390.207 202.044 387.088L260.554 83.7132ZM126.044 387.088C125.443 390.207 122.388 392.735 119.22 392.735C116.053 392.735 113.973 390.207 114.575 387.088L173.085 83.7132C173.686 80.595 176.741 78.0669 179.908 78.0669C183.076 78.0669 185.156 80.595 184.554 83.7132L126.044 387.088Z" fill="white" stroke="#4A4848" stroke-width="0.628429" stroke-miterlimit="10" stroke-linecap="round" stroke-linejoin="round"/>
<path d="M178.531 78.0669C181.698 78.0669 184.701 80.595 185.239 83.7132L186.272 89.7046H262.272L261.239 83.7132C260.701 80.595 262.833 78.0669 266 78.0669C269.167 78.0669 272.171 80.595 272.708 83.7132L325.015 387.088C325.552 390.207 323.421 392.735 320.253 392.735C317.086 392.735 314.083 390.207 313.545 387.088L307.992 354.881H231.993L237.546 387.088C238.083 390.207 235.952 392.735 232.784 392.735C229.617 392.735 226.614 390.207 226.076 387.088L173.77 83.7131C173.232 80.5949 175.364 78.0669 178.531 78.0669ZM297.291 292.812L290.483 253.328H214.483L221.291 292.812H297.291ZM288.536 242.035L281.728 202.551H205.729L212.536 242.035H288.536ZM279.781 191.258L272.973 151.774H196.974L203.782 191.258H279.781ZM271.026 140.481L264.219 100.997H188.219L195.027 140.481H271.026ZM299.238 304.104H223.238L230.046 343.589H306.045L299.238 304.104Z" fill="white" stroke="#4A4848" stroke-width="0.628429" stroke-miterlimit="10" stroke-linecap="round" stroke-linejoin="round"/>
<path d="M302.392 303.203L306.162 318.896L304.672 332.177L273.625 331.929L274.131 321.716L280.171 318.231L287.815 294.738L302.392 303.203Z" fill="white" stroke="#4A4848" stroke-width="0.628429" stroke-miterlimit="10" stroke-linecap="round" stroke-linejoin="round"/>
<path d="M291.908 340.966L310.799 335.812L306.166 318.896C306.166 318.896 296.031 325.289 286.586 324.745C277.141 324.201 274.373 321.477 274.373 321.477L240.489 338.612L244.562 342.297L291.908 340.966Z" fill="#EBEFF9" stroke="#4A4848" stroke-width="0.628429" stroke-miterlimit="10" stroke-linecap="round" stroke-linejoin="round"/>
<path d="M253.465 340.952C261.899 340.952 310.799 335.812 310.799 335.812L312.633 344.352L250.458 344.324C246.176 344.324 241.006 342.993 239.93 341.389L240.49 338.611C240.49 338.611 242.397 340.952 253.465 340.952Z" fill="#EBEFF9" stroke="#4A4848" stroke-width="0.628429" stroke-miterlimit="10" stroke-linecap="round" stroke-linejoin="round"/>
<path d="M256.645 119.371C268.096 124.518 283.856 135.134 277.942 164.026C297.179 219.473 315.082 316.687 315.082 316.687L275.641 318.277C275.641 318.277 230.772 164.277 234.341 137.376C237.91 110.474 245.485 114.354 256.645 119.371Z" fill="white" stroke="#4A4848" stroke-width="0.628429" stroke-miterlimit="10" stroke-linecap="round" stroke-linejoin="round"/>
<path d="M266.614 231.098L286.53 243.046L298.937 238.236L313.066 266.023L303.821 270.292L297.956 266.519L262.846 251.879L266.614 231.098Z" fill="white" stroke="#4A4848" stroke-width="0.628429" stroke-miterlimit="10" stroke-linecap="round" stroke-linejoin="round"/>
<path d="M312.596 245.554L299.319 231.098L286.535 243.046C286.535 243.046 296.859 249.124 300.744 257.794C304.629 266.465 303.505 270.191 303.505 270.191L334.281 292.474L335.65 287.14L312.596 245.554Z" fill="#EBEFF9" stroke="#4A4848" stroke-width="0.628429" stroke-miterlimit="10" stroke-linecap="round" stroke-linejoin="round"/>
<path d="M330.349 279.827C326.451 272.31 299.317 231.099 299.317 231.099L306.005 225.518L334.713 280.949C336.692 284.766 337.907 289.989 336.989 291.689L334.28 292.474C334.28 292.474 335.464 289.693 330.349 279.827Z" fill="#EBEFF9" stroke="#4A4848" stroke-width="0.628429" stroke-miterlimit="10" stroke-linecap="round" stroke-linejoin="round"/>
<path d="M267.53 53.2647C298.779 69.2959 310.714 96.4916 312.092 106.362C313.878 119.152 258.825 133.889 250.438 127.588C242.05 121.287 286.605 100.263 286.605 100.263C286.605 100.263 260.068 88.9671 261.202 68.2218C262.085 52.0757 267.53 53.2647 267.53 53.2647Z" fill="white" stroke="#4A4848" stroke-width="0.628429" stroke-miterlimit="10" stroke-linecap="round" stroke-linejoin="round"/>
<path d="M265.125 51.9683C281.257 52.2168 301.135 79.4487 301.135 79.4487C301.135 79.4487 295.961 96.0068 276.9 99.2911C254.314 103.183 265.125 51.9683 265.125 51.9683Z" fill="#EBEFF9" stroke="#4A4848" stroke-width="0.628429" stroke-miterlimit="10" stroke-linecap="round" stroke-linejoin="round"/>
<path d="M223.711 32.7002C222.864 28.4162 229.924 22.4295 234.186 21.5788C238.448 20.728 242.59 23.5112 243.436 27.7952C243.873 30.0037 251.341 49.759 251.777 51.9675C252.623 56.2515 246.261 60.2689 241.999 61.1196C237.736 61.9703 234.145 52.7051 234.145 52.7051C234.145 52.7051 224.147 34.9088 223.711 32.7002Z" fill="white" stroke="#4A4848" stroke-width="0.628429" stroke-miterlimit="10" stroke-linecap="round" stroke-linejoin="round"/>
<path d="M238.731 29.3563C235.978 31.2881 232.995 29.8509 232.995 29.8509L233.787 23.0194C239.474 19.6499 242.381 26.795 238.731 29.3563Z" fill="white"/>
<path d="M233.79 23.0198C239.476 19.6504 242.757 26.831 238.733 29.3568C235.885 31.1443 232.998 29.8514 232.998 29.8514" stroke="#545290" stroke-width="0.179551" stroke-miterlimit="10" stroke-linecap="round" stroke-linejoin="round"/>
<path d="M234.881 24.7923C237.062 23.6092 237.895 25.3357 237.895 25.3357" stroke="#545290" stroke-width="0.179551" stroke-miterlimit="10" stroke-linecap="round" stroke-linejoin="round"/>
<path d="M235.504 9.01823C228.886 10.1426 223.689 15.2135 220.343 21.1045C216.527 20.2346 215.931 24.1817 218.506 24.8425C215.814 31.2528 215.267 37.8539 217.366 41.0113C221.875 47.7934 246.907 38.7927 248.398 24.2765C249.726 11.3516 239.247 8.38217 235.504 9.01823Z" fill="white"/>
<path d="M235.502 9.01807C228.884 10.1425 223.687 15.2134 220.341 21.1044C216.525 20.2344 215.929 24.1815 218.504 24.8423C215.812 31.2526 215.265 37.8537 217.364 41.0111C219.572 44.3316 226.699 43.8689 233.574 40.8278" fill="white"/>
<path d="M235.502 9.01807C228.884 10.1425 223.687 15.2134 220.341 21.1044C216.525 20.2344 215.929 24.1815 218.504 24.8423C215.812 31.2526 215.265 37.8537 217.364 41.0111C219.572 44.3316 226.699 43.8689 233.574 40.8278" stroke="#4A4848" stroke-width="0.628429" stroke-miterlimit="10" stroke-linecap="round" stroke-linejoin="round"/>
<path d="M226.352 16.6836C228.541 17.0782 229.656 17.9322 229.656 17.9322" stroke="#4A4848" stroke-width="1.61596" stroke-miterlimit="10" stroke-linecap="round" stroke-linejoin="round"/>
<path d="M227.967 28.2422C226.628 30.8313 223.708 30.6279 223.708 30.6279L227.967 28.2422Z" fill="white"/>
<path d="M227.967 28.2422C226.628 30.8313 223.708 30.6279 223.708 30.6279" stroke="#4A4848" stroke-width="0.628429" stroke-miterlimit="10" stroke-linecap="round" stroke-linejoin="round"/>
<path d="M226.561 22.0674C226.561 22.0674 226.316 22.3251 226.211 22.5737" stroke="#4A4848" stroke-width="1.61596" stroke-miterlimit="10" stroke-linecap="round" stroke-linejoin="round"/>
<path d="M227.412 8.19932C226.438 17.2242 239.487 22.0479 239.487 22.0479C239.487 22.0479 236.391 35.2366 247.123 38.5357C262.507 30.2329 259.445 16.9317 251.409 7.62408C243.74 -1.2583 228.383 -0.792688 227.412 8.19932Z" fill="#4A4848"/>
<path d="M242.863 29.2719C240.11 31.2037 237.128 29.7665 237.128 29.7665L237.92 22.9349C243.606 19.5654 246.513 26.7105 242.863 29.2719Z" fill="white"/>
<path d="M237.922 22.9353C243.609 19.5659 246.89 26.7465 242.866 29.2723C240.018 31.0598 237.131 29.7669 237.131 29.7669" fill="white"/>
<path d="M237.922 22.9353C243.609 19.5659 246.89 26.7465 242.866 29.2723C240.018 31.0598 237.131 29.7669 237.131 29.7669" stroke="#4A4848" stroke-width="0.628429" stroke-miterlimit="10" stroke-linecap="round" stroke-linejoin="round"/>
<path d="M239.008 24.7078C241.189 23.5247 242.021 25.2512 242.021 25.2512L239.008 24.7078Z" fill="white"/>
<path d="M239.008 24.7078C241.189 23.5247 242.021 25.2512 242.021 25.2512" stroke="#4A4848" stroke-width="0.628429" stroke-miterlimit="10" stroke-linecap="round" stroke-linejoin="round"/>
<path d="M233.953 0.314453C226.241 2.69474 228.199 7.70156 228.199 7.70156" stroke="#4A4848" stroke-width="0.628429" stroke-miterlimit="10" stroke-linecap="round" stroke-linejoin="round"/>
<path d="M222.294 62.326C251.322 42.5069 271.653 50.8339 272.241 75.4078C272.829 99.9816 264.05 130.255 264.05 130.255L233.081 129.285C233.081 129.285 212.849 87.713 222.294 62.326Z" fill="#637CCD" stroke="#4A4848" stroke-width="0.628429" stroke-miterlimit="10" stroke-linecap="round" stroke-linejoin="round"/>
<path d="M235.798 119.371C221.638 119.092 200.364 169.586 190.237 200.522C187.705 208.255 184.995 225.517 196.545 233.472C208.095 241.428 276.786 272.911 276.786 272.911L288.279 241.431L229.663 209.761C229.663 209.761 241.442 188.322 251.16 170.283C264.845 159.344 263.422 144.339 262.696 137.375C260.213 113.546 235.798 119.371 235.798 119.371Z" fill="white" stroke="#4A4848" stroke-width="0.628429" stroke-miterlimit="10" stroke-linecap="round" stroke-linejoin="round"/>
<path d="M265.925 51.3823C229.026 47.0212 207.152 61.373 207.302 66.9844C207.623 79.0143 219.851 121.545 220.584 123.339C221.316 125.132 211.914 147.008 211.914 147.008C211.914 147.008 268.607 158.576 281.99 147.998C283.774 104.69 279.663 53.0061 265.925 51.3823Z" fill="#EBEFF9"/>
<path d="M273.109 60.2954C270.925 55.3525 268.278 52.341 265.124 51.9682C228.225 47.6071 206.351 61.959 206.501 67.5703C206.822 79.6003 219.05 122.131 219.783 123.925C220.516 125.718 211.113 147.594 211.113 147.594C211.113 147.594 267.807 159.162 281.189 148.584C282.135 125.618 281.424 100.297 278.498 81.334" stroke="#4A4848" stroke-width="0.628429" stroke-miterlimit="10" stroke-linecap="round" stroke-linejoin="round"/>
<path d="M229.017 69.9223C237.794 89.5918 201.891 97.8055 179.117 100.836C172.475 101.72 167.6 98.9046 163.055 93.9567C150.373 80.1501 149.655 44.8693 153.842 38.5359C159.447 30.0576 176.521 76.5048 176.521 76.5048C176.521 76.5048 221.724 53.5786 229.017 69.9223Z" fill="white" stroke="#4A4848" stroke-width="0.628429" stroke-miterlimit="10" stroke-linecap="round" stroke-linejoin="round"/>
<path d="M218.78 57.2188C205.334 62.3772 188.421 70.2811 188.421 70.2811C186.86 83.8331 201.872 99.2196 201.872 99.2196C201.872 99.2196 236.483 94.3021 234.012 78.746C231.542 63.1899 218.78 57.2188 218.78 57.2188Z" fill="#EBEFF9"/>
<path d="M219.304 57.0723C205.858 62.2307 188.422 70.2811 188.422 70.2811C186.861 83.8331 201.873 99.2195 201.873 99.2195C201.873 99.2195 221.806 96.3875 230.338 88.2232" stroke="#4A4848" stroke-width="0.628429" stroke-miterlimit="10" stroke-linecap="round" stroke-linejoin="round"/>
<path d="M229.664 209.761L223.233 222.293" stroke="#4A4848" stroke-width="0.628429" stroke-miterlimit="10" stroke-linecap="round" stroke-linejoin="round"/>
<path d="M176.514 76.5054L168.76 79.8255" stroke="#4A4848" stroke-width="0.628429" stroke-miterlimit="10" stroke-linecap="round" stroke-linejoin="round"/>
<path d="M140.958 15.754C138.221 15.2933 141.489 33.9125 141.489 33.9125L146.406 35.2377C146.406 35.2377 144.319 16.3196 140.958 15.754Z" fill="white" stroke="#4A4848" stroke-width="0.628429" stroke-miterlimit="10" stroke-linecap="round" stroke-linejoin="round"/>
<path d="M135.832 15.4742C133.06 15.3179 138.214 32.7418 138.214 32.7418L143.246 33.5172C143.246 33.5172 139.234 15.6661 135.832 15.4742Z" fill="white" stroke="#4A4848" stroke-width="0.628429" stroke-miterlimit="10" stroke-linecap="round" stroke-linejoin="round"/>
<path d="M163.206 45.7331C164.366 36.3019 150.542 34.457 150.542 34.457L140.082 30.1463C140.082 30.1463 133.789 17.6087 130.027 17.1248C126.265 16.641 134.809 33.7912 137.795 36.3196C140.911 38.9588 147.523 42.9791 150.972 47.023C153.759 50.2918 162.545 51.1114 163.206 45.7331Z" fill="white"/>
<path d="M162.991 46.6699C163.092 46.3812 163.165 46.0693 163.206 45.7331C164.366 36.3019 150.542 34.457 150.542 34.457L140.082 30.1463C140.082 30.1463 133.789 17.6087 130.027 17.1248C126.265 16.641 134.809 33.7912 137.795 36.3196C140.911 38.9588 147.523 42.9791 150.972 47.023C151.386 47.5096 151.934 47.9418 152.568 48.3074" fill="white"/>
<path d="M162.991 46.6699C163.092 46.3812 163.165 46.0693 163.206 45.7331C164.366 36.3019 150.542 34.457 150.542 34.457L140.082 30.1463C140.082 30.1463 133.789 17.6087 130.027 17.1248C126.265 16.641 134.809 33.7912 137.795 36.3196C140.911 38.9588 147.523 42.9791 150.972 47.023C151.386 47.5096 151.934 47.9418 152.568 48.3074" stroke="#4A4848" stroke-width="0.628429" stroke-miterlimit="10" stroke-linecap="round" stroke-linejoin="round"/>
<path d="M169.836 299.913C169.836 299.913 178.22 322.809 177.908 328.119C177.595 333.428 166.59 334.96 152.628 324.701C138.666 314.442 169.836 299.913 169.836 299.913Z" fill="#4A4848" stroke="#4A4848" stroke-width="0.628429" stroke-miterlimit="10" stroke-linecap="round" stroke-linejoin="round"/>
<path d="M149.479 217.679L111.758 228.841L95.2312 201.283L75.8937 194.562C75.8937 194.562 77.8481 203.841 85.3321 207.603L97.9579 241.092C100.129 246.852 105.788 250.512 111.903 250.104C124.677 249.251 145.985 247.444 156.157 244.394C171.994 239.646 166.473 213.658 149.479 217.679Z" fill="white" stroke="#4A4848" stroke-width="0.628429" stroke-miterlimit="10"/>
<path d="M167.31 227.518C170.219 239.867 162.465 246.949 129.549 250.665C122.116 245.199 114.952 224.315 123.82 222.392C145.578 217.674 162.483 207.027 167.31 227.518Z" fill="#EBEFF9" stroke="#4A4848" stroke-width="0.628429" stroke-miterlimit="10" stroke-linecap="round" stroke-linejoin="round"/>
<path d="M150.486 373.882L171.561 371.046L180.304 360.975L205.697 378.929L199.501 387.04L192.561 386.453L148.936 387.818L150.486 373.882Z" fill="white" stroke="#4A4848" stroke-width="0.628429" stroke-miterlimit="10" stroke-linecap="round" stroke-linejoin="round"/>
<path d="M195.776 361.046L177.322 354.484L171.559 371.046C171.559 371.046 183.512 371.582 190.973 377.43C198.433 383.278 199.168 387.101 199.168 387.101L236.732 392.381L235.468 387.022L195.776 361.046Z" fill="#EBEFF9" stroke="#4A4848" stroke-width="0.628429" stroke-miterlimit="10" stroke-linecap="round" stroke-linejoin="round"/>
<path d="M227.398 383.038C220.462 378.216 177.335 354.485 177.335 354.485L180.66 346.413L231.78 381.984C235.301 384.432 238.8 388.483 238.777 390.417L236.745 392.382C236.745 392.382 236.501 389.366 227.398 383.038Z" fill="#EBEFF9" stroke="#4A4848" stroke-width="0.628429" stroke-miterlimit="10" stroke-linecap="round" stroke-linejoin="round"/>
<path d="M62.7789 351.334L66.5488 367.027L65.0583 380.308L34.0121 380.06L34.518 369.847L40.5577 366.362L48.2015 342.869L62.7789 351.334Z" fill="white" stroke="#4A4848" stroke-width="0.628429" stroke-miterlimit="10" stroke-linecap="round" stroke-linejoin="round"/>
<path d="M52.2945 389.097L71.1855 383.943L66.5524 367.027C66.5524 367.027 56.4178 373.42 46.9728 372.876C37.5277 372.332 34.7596 369.608 34.7596 369.608L0.876205 386.743L4.94907 390.428L52.2945 389.097Z" fill="#EBEFF9" stroke="#4A4848" stroke-width="0.628429" stroke-miterlimit="10" stroke-linecap="round" stroke-linejoin="round"/>
<path d="M13.8498 389.083C22.284 389.083 71.184 383.943 71.184 383.943L73.0176 392.574L10.8432 392.455C6.56077 392.455 1.39113 391.124 0.31517 389.52L0.874557 386.742C0.874557 386.742 2.78175 389.083 13.8498 389.083Z" fill="#EBEFF9" stroke="#4A4848" stroke-width="0.628429" stroke-miterlimit="10" stroke-linecap="round" stroke-linejoin="round"/>
<path d="M136.757 275.104L131.223 285.424C131.223 285.424 78.2971 249.74 55.6874 256.269C39.8577 260.84 41.4136 301.106 34.5329 356.414C33.6859 363.222 45.415 371.423 71.2685 374.397L77.1964 305.044C77.1964 305.044 112.409 330.881 132.883 328.318C153.358 325.755 159.826 275.104 159.826 275.104H136.757Z" fill="white" stroke="#4A4848" stroke-width="0.628429" stroke-miterlimit="10"/>
<path d="M141.055 288.23C141.055 288.23 63.9653 345.852 61.4957 371.185C59.026 396.519 102.813 392.381 116.62 392.381C130.426 392.381 189.385 390.752 189.385 390.752C189.385 390.752 188.828 363.321 170.793 358.452L124.547 354.484C124.547 354.484 172.545 333.868 170.086 313.854C166.679 286.126 159.827 275.104 159.827 275.104L141.055 288.23Z" fill="white" stroke="#4A4848" stroke-width="0.628429" stroke-miterlimit="10"/>
<path d="M162.925 216.896C179.989 224.382 189.378 241.567 183.573 276.358C179.195 302.598 177.906 328.118 177.906 328.118C177.906 328.118 177.31 316.89 118.544 291.267C117.089 274.626 128.245 201.681 162.925 216.896Z" fill="#EBEFF9"/>
<path d="M143.429 218.055C148.878 214.458 155.338 213.568 162.925 216.896C179.989 224.383 189.378 241.567 183.573 276.358C179.195 302.598 177.906 328.118 177.906 328.118C177.906 328.118 177.318 317.159 118.544 291.267C117.692 281.516 121.169 252.435 131.171 233.085" stroke="#4A4848" stroke-width="0.628429" stroke-miterlimit="10" stroke-linecap="round" stroke-linejoin="round"/>
<path d="M110.153 359.536C114.83 358.021 120.882 355.99 124.547 354.484C124.547 354.484 123.056 357.491 118.427 360.975" stroke="#4A4848" stroke-width="0.628429" stroke-miterlimit="10"/>
<path d="M133.463 184.089C132.829 180.79 134.976 177.598 138.258 176.961C141.541 176.324 144.716 178.481 145.35 181.78C145.984 185.079 143.837 188.271 140.555 188.908C137.272 189.546 134.097 187.388 133.463 184.089Z" fill="#4A4848"/>
<path d="M162.559 189.008C160.195 186.632 160.195 182.78 162.559 180.404C164.923 178.028 168.756 178.028 171.12 180.404C173.484 182.78 173.484 186.632 171.12 189.008C168.756 191.384 164.923 191.384 162.559 189.008Z" fill="#4A4848"/>
<path d="M166.983 192.058C165.243 190.582 165.023 187.967 166.491 186.218C167.96 184.468 170.561 184.247 172.302 185.723C174.042 187.199 174.263 189.814 172.794 191.563C171.325 193.312 168.724 193.534 166.983 192.058Z" fill="#4A4848"/>
<path d="M159.732 209.158C158.122 207.54 158.122 204.916 159.732 203.297C161.342 201.679 163.953 201.679 165.563 203.297C167.173 204.916 167.173 207.54 165.563 209.158C163.953 210.776 161.342 210.776 159.732 209.158Z" fill="#4A4848"/>
<path d="M145.072 174.476C143.682 172.663 144.016 170.06 145.82 168.663C147.624 167.265 150.213 167.602 151.603 169.414C152.994 171.227 152.659 173.83 150.855 175.227C149.052 176.625 146.463 176.288 145.072 174.476Z" fill="#4A4848"/>
<path d="M136.094 180.859C133.953 180.079 132.846 177.703 133.621 175.551C134.396 173.398 136.761 172.286 138.902 173.065C141.043 173.844 142.151 176.221 141.375 178.373C140.6 180.525 138.235 181.638 136.094 180.859Z" fill="#4A4848"/>
<path d="M162.264 196.111C159.9 193.735 159.9 189.883 162.264 187.507C164.628 185.131 168.461 185.131 170.825 187.507C173.189 189.883 173.189 193.735 170.825 196.111C168.461 198.487 164.628 198.487 162.264 196.111Z" fill="#4A4848"/>
<path d="M160.454 204.049C158.09 201.673 158.09 197.82 160.454 195.444C162.818 193.068 166.651 193.068 169.015 195.444C171.379 197.82 171.379 201.673 169.015 204.049C166.651 206.425 162.818 206.425 160.454 204.049Z" fill="#4A4848"/>
<path d="M141.388 182.114C138.245 180.969 136.621 177.479 137.761 174.32C138.9 171.161 142.371 169.529 145.514 170.674C148.657 171.819 150.281 175.308 149.142 178.467C148.003 181.626 144.531 183.259 141.388 182.114Z" fill="#4A4848"/>
<path d="M156.184 184.231C153.82 181.855 153.82 178.003 156.184 175.627C158.548 173.251 162.381 173.251 164.745 175.627C167.109 178.003 167.109 181.855 164.745 184.231C162.381 186.607 158.548 186.607 156.184 184.231Z" fill="#4A4848"/>
<path d="M147.643 181.05C145.279 178.674 145.279 174.821 147.643 172.445C150.007 170.069 153.84 170.069 156.204 172.445C158.568 174.821 158.568 178.674 156.204 181.05C153.84 183.426 150.007 183.426 147.643 181.05Z" fill="#4A4848"/>
<path d="M163.293 217.349C163.267 211.832 162.783 198.381 162.623 196.451C162.266 192.119 156.379 188.979 152.068 189.339C147.758 189.698 141.363 194.098 141.721 198.431C141.88 200.362 145.889 216.419 146.829 221.798C139.765 226.704 134.907 238.674 143.785 237.967C147.727 237.653 174.319 221.046 163.293 217.349Z" fill="white" stroke="#4A4848" stroke-width="0.628429" stroke-miterlimit="10" stroke-linecap="round" stroke-linejoin="round"/>
<path d="M155.533 196.946C153.259 199.653 149.846 199.005 149.846 199.005L148.813 191.857C153.678 186.894 158.549 193.355 155.533 196.946Z" fill="white"/>
<path d="M148.818 191.857C153.683 186.894 158.942 193.289 155.538 196.945C153.128 199.532 149.851 199.004 149.851 199.004" stroke="#4A4848" stroke-width="0.628429" stroke-miterlimit="10" stroke-linecap="round" stroke-linejoin="round"/>
<path d="M150.393 193.36C152.289 191.567 153.598 193.093 153.598 193.093" stroke="#4A4848" stroke-width="0.628429" stroke-miterlimit="10" stroke-linecap="round" stroke-linejoin="round"/>
<path d="M146.788 177.185C141.528 179.595 137.952 184.438 135.836 189.901C135.372 191.1 131.257 194.914 131.021 195.83C130.717 197.008 132.223 197.875 133.793 197.858C132.784 205.094 134.003 211.941 136.982 214.575C143.38 220.233 166.362 204.303 163.973 189.168C161.846 175.692 150.415 175.524 146.788 177.185Z" fill="white"/>
<path d="M163.973 189.168C161.846 175.692 150.415 175.524 146.787 177.185C141.528 179.595 137.951 184.438 135.835 189.901C135.371 191.1 131.257 194.914 131.02 195.83C130.716 197.008 132.222 197.875 133.792 197.858C132.783 205.094 134.003 211.941 136.981 214.575" stroke="#4A4848" stroke-width="0.628429" stroke-miterlimit="10" stroke-linecap="round" stroke-linejoin="round"/>
<path d="M139.566 187.449C141.892 187.255 143.254 187.819 143.254 187.819" stroke="#4A4848" stroke-width="1.61596" stroke-miterlimit="10" stroke-linecap="round" stroke-linejoin="round"/>
<path d="M141.23 192.854C141.23 192.854 141.052 193.182 141.012 193.463" stroke="#4A4848" stroke-width="1.61596" stroke-miterlimit="10" stroke-linecap="round" stroke-linejoin="round"/>
<path d="M144.984 174.759C136.437 184.472 154.334 189.327 154.334 189.327C154.334 189.327 162.531 196.12 163.307 205.534C170.868 191.348 165.83 180.249 160.283 176.67C154.736 173.091 144.984 174.759 144.984 174.759Z" fill="#4A4848"/>
<path d="M159.705 195.738C157.43 198.446 154.018 197.797 154.018 197.797L152.985 190.65C157.85 185.687 162.72 192.148 159.705 195.738Z" fill="white"/>
<path d="M152.984 190.651C157.849 185.687 163.108 192.083 159.704 195.739C157.294 198.326 154.017 197.798 154.017 197.798" stroke="#4A4848" stroke-width="0.628429" stroke-miterlimit="10" stroke-linecap="round" stroke-linejoin="round"/>
<path d="M154.567 192.153C156.463 190.36 157.771 191.886 157.771 191.886" stroke="#4A4848" stroke-width="0.628429" stroke-miterlimit="10" stroke-linecap="round" stroke-linejoin="round"/>
<path d="M132.085 203.705C130.883 197.728 136.329 197.023 138.71 197.579C141.09 198.135 142.142 201.275 142.142 201.275C142.142 201.275 146.503 201.582 152.179 196.583C153.835 204.031 150.331 214.632 140.382 216.844C133.078 218.467 129.453 208.199 132.085 203.705Z" fill="#4A4848"/>
<path d="M133.416 203.174C131.756 199.247 140.603 198.804 140.943 201.919C141.283 205.033 135.281 207.587 133.416 203.174Z" fill="white"/>
<path d="M135.314 202.933C139.469 202.754 140.713 199.633 140.713 199.633" stroke="#4A4848" stroke-width="0.628429" stroke-miterlimit="10" stroke-linecap="round" stroke-linejoin="round"/>
<path d="M165.617 178.94C172.008 176.647 173.469 181.486 173.469 181.486" stroke="#4A4848" stroke-width="0.628429" stroke-miterlimit="10" stroke-linecap="round" stroke-linejoin="round"/>
<path d="M153.761 169.634C158.2 171.984 158.137 174.443 158.225 175.502" stroke="#4A4848" stroke-width="0.628429" stroke-miterlimit="10" stroke-linecap="round" stroke-linejoin="round"/>
<path d="M168.393 197.11C171.226 197.354 173.256 194.305 173.256 194.305" stroke="#4A4848" stroke-width="0.628429" stroke-miterlimit="10" stroke-linecap="round" stroke-linejoin="round"/>
<path d="M168.699 195.698C171.715 197.527 171.573 200.952 171.573 200.952" stroke="#4A4848" stroke-width="0.628429" stroke-miterlimit="10" stroke-linecap="round" stroke-linejoin="round"/>
<path d="M138.593 171.058C143.184 168.808 147.025 170.995 147.025 170.995" stroke="#4A4848" stroke-width="0.628429" stroke-miterlimit="10" stroke-linecap="round" stroke-linejoin="round"/>
<path d="M132.427 176.051C132.917 180.064 135.916 180.401 135.916 180.401" stroke="#4A4848" stroke-width="0.628429" stroke-miterlimit="10" stroke-linecap="round" stroke-linejoin="round"/>
<path d="M136.139 195.719V188.59H135.371C134.839 188.59 134.407 190.186 134.407 192.154C134.407 194.123 134.839 195.719 135.371 195.719L136.139 195.719Z" fill="#4A4848" stroke="#4A4848" stroke-width="0.628429" stroke-miterlimit="10"/>
<path d="M116.313 194.925C116.727 194.925 117.063 193.685 117.063 192.154C117.063 190.624 116.727 189.384 116.313 189.384H135.165C135.579 189.384 135.914 190.624 135.914 192.154C135.914 193.685 135.579 194.925 135.165 194.925H116.313Z" fill="white" stroke="#4A4848" stroke-width="0.628429" stroke-miterlimit="10"/>
<path d="M95.1521 197.219C95.9083 197.219 96.5214 194.952 96.5214 192.155C96.5214 189.358 95.9083 187.09 95.1521 187.09H129.609C130.365 187.09 130.979 189.358 130.979 192.155C130.979 194.952 130.365 197.219 129.609 197.219H95.1521Z" fill="white" stroke="#4A4848" stroke-width="0.628429" stroke-miterlimit="10"/>
<path d="M135.274 195.719C135.807 195.719 136.238 194.123 136.238 192.155C136.238 190.186 135.807 188.59 135.274 188.59H137.368C137.901 188.59 138.332 190.186 138.332 192.155C138.332 194.123 137.901 195.719 137.368 195.719H135.274Z" fill="#4A4848" stroke="#4A4848" stroke-width="0.628429" stroke-miterlimit="10"/>
<path d="M62.912 199.755C64.047 199.755 64.9671 196.352 64.9671 192.155C64.9671 187.957 64.047 184.554 62.912 184.554H114.625C115.76 184.554 116.68 187.957 116.68 192.155C116.68 196.352 115.76 199.755 114.625 199.755H62.912Z" fill="white" stroke="#4A4848" stroke-width="0.628429" stroke-miterlimit="10"/>
<path d="M48.2832 204.598V179.711H44.0169C42.1587 179.711 40.6524 185.282 40.6524 192.155C40.6524 199.027 42.1587 204.598 44.0169 204.598H48.2832Z" fill="white" stroke="#4A4848" stroke-width="0.628429" stroke-miterlimit="10"/>
<path d="M45.8941 179.711C44.036 179.711 42.5295 185.282 42.5295 192.155C42.5295 199.027 44.0359 204.598 45.8941 204.598L47.8652 199.755V184.781L45.8941 179.711Z" fill="#4A4848"/>
<path d="M103.185 189.449C103.506 189.969 103.186 197.729 102.791 199.236C102.396 200.742 95.8115 209.097 95.8115 209.097L89.7963 204.39C89.7963 204.39 91.1744 200.013 97.8768 195.851C98.7952 190.807 101.529 186.758 103.185 189.449Z" fill="white"/>
<path d="M91.905 200.932C93.1329 199.436 95.0218 197.624 97.8768 195.851C98.7951 190.807 101.529 186.758 103.185 189.449C103.506 189.969 103.186 197.729 102.791 199.235C102.51 200.309 99.0891 204.855 97.1433 207.383" stroke="#4A4848" stroke-width="0.628429" stroke-miterlimit="10"/>
<path d="M48.0587 202.506C49.6044 202.506 50.8575 197.871 50.8575 192.155C50.8575 186.438 49.6044 181.804 48.0587 181.804H91.5078C93.0536 181.804 94.3066 186.438 94.3066 192.155C94.3066 197.871 93.0536 202.506 91.5078 202.506H48.0587Z" fill="white" stroke="#4A4848" stroke-width="0.628429" stroke-miterlimit="10"/>
<path d="M47.5967 203.841C49.3419 203.841 50.7567 198.609 50.7567 192.154C50.7567 185.7 49.3419 180.468 47.5967 180.468H51.6037C53.3489 180.468 54.7637 185.7 54.7637 192.154C54.7637 198.609 53.3489 203.841 51.6037 203.841H47.5967Z" fill="white" stroke="#4A4848" stroke-width="0.628429" stroke-miterlimit="10"/>
<path d="M43.7766 204.598C45.6348 204.598 47.1412 199.027 47.1412 192.155C47.1412 185.282 45.6349 179.711 43.7766 179.711H48.6881C50.5463 179.711 52.0527 185.282 52.0527 192.155C52.0527 199.027 50.5464 204.598 48.6881 204.598H43.7766Z" fill="white" stroke="#4A4848" stroke-width="0.628429" stroke-miterlimit="10"/>
<path d="M158.267 234.482L115.492 245.095L77.6518 228.103L67.1688 236.976L105.053 263.953C108.729 266.571 113.192 267.83 117.686 267.51C129.724 266.653 154.116 264.57 165.198 261.131C180.989 256.231 175.221 230.297 158.267 234.482Z" fill="white" stroke="#4A4848" stroke-width="0.628429" stroke-miterlimit="10"/>
<path d="M176.185 244.149C179.212 256.47 170.094 264.355 137.215 268.387C131.675 251.995 137.535 238.124 137.535 238.124C137.535 238.124 171.164 223.705 176.185 244.149Z" fill="#EBEFF9"/>
<path d="M164.793 262.195C158.533 264.821 149.545 266.875 137.216 268.387C131.676 251.995 137.536 238.124 137.536 238.124C137.536 238.124 148.379 233.475 158.67 233.2" stroke="#4A4848" stroke-width="0.628429" stroke-miterlimit="10" stroke-linecap="round" stroke-linejoin="round"/>
<path d="M62.1874 227.472C59.1467 225.122 59.1331 225.77 56.7939 228.447C54.0312 231.61 56.2755 231.447 55.6011 235.157C54.9587 238.691 60.1945 237.154 61.7377 232.945C62.5975 230.6 62.1874 227.472 62.1874 227.472Z" fill="white" stroke="#4A4848" stroke-width="0.628429" stroke-miterlimit="10" stroke-linecap="round" stroke-linejoin="round"/>
<path d="M76.8733 227.719C81.8685 229.877 79.9884 238.415 77.8463 239.422C73.3922 242.288 67.4702 240.315 67.4702 240.315C65.6837 243.727 64.2155 243.72 61.6091 242.017C58.8684 240.226 60.0017 238.502 60.0017 238.502C57.1768 238.051 57.1165 234.688 57.932 233.714C56.3326 232.358 55.925 231.09 58.7226 228.312C54.5056 228.821 43.4242 224.055 44.203 221.913C44.9829 219.768 52.134 223.962 60.7974 223.264C64.5121 222.964 71.2345 225.499 72.6201 225.978C74.0362 226.467 76.8733 227.719 76.8733 227.719Z" fill="white"/>
<path d="M74.9793 240.633C71.2064 241.563 67.4628 240.316 67.4628 240.316C65.6764 243.727 64.2082 243.721 61.6018 242.018C58.8611 240.227 59.9944 238.502 59.9944 238.502C57.1694 238.051 57.1092 234.688 57.9246 233.715C56.3253 232.358 55.9177 231.09 58.7153 228.312C54.4983 228.822 43.4169 224.056 44.1956 221.914C44.9756 219.768 52.1267 223.963 60.7901 223.264C64.5047 222.965 71.2272 225.5 72.6127 225.978C74.0288 226.467 76.866 227.72 76.866 227.72C77.3891 227.946 77.8369 228.242 78.2168 228.592" stroke="#4A4848" stroke-width="0.628429" stroke-miterlimit="10" stroke-linecap="round" stroke-linejoin="round"/>
<path d="M63.9619 241.124C64.7588 240.584 64.9434 239.804 64.9434 239.804" stroke="#4A4848" stroke-width="0.628429" stroke-miterlimit="10" stroke-linecap="round" stroke-linejoin="round"/>
<path d="M63.5252 240.09C64.8186 239.587 66.2803 239.786 67.4668 240.315" stroke="#4A4848" stroke-width="0.628429" stroke-miterlimit="10" stroke-linecap="round" stroke-linejoin="round"/>
<path d="M59.999 238.502C61.5769 236.129 63.0371 236.484 63.0371 236.484" stroke="#4A4848" stroke-width="0.628429" stroke-miterlimit="10" stroke-linecap="round" stroke-linejoin="round"/>
<path d="M57.926 233.715C59.3012 231.863 61.8672 231.316 61.8672 231.316" stroke="#4A4848" stroke-width="0.628429" stroke-miterlimit="10" stroke-linecap="round" stroke-linejoin="round"/>
<path d="M58.7167 228.312C59.4674 227.677 60.4103 227.318 61.084 227.127" stroke="#4A4848" stroke-width="0.628429" stroke-miterlimit="10" stroke-linecap="round" stroke-linejoin="round"/>
<path d="M221.057 25.9144V18.7856H220.289C219.757 18.7856 219.325 20.3814 219.325 22.3501C219.325 24.3186 219.757 25.9145 220.289 25.9145L221.057 25.9144Z" fill="#4A4848" stroke="#4A4848" stroke-width="0.628429" stroke-miterlimit="10"/>
<path d="M201.231 25.1209C201.645 25.1209 201.981 23.8804 201.981 22.3502C201.981 20.82 201.645 19.5796 201.231 19.5796H220.083C220.497 19.5796 220.832 20.82 220.832 22.3502C220.832 23.8804 220.497 25.1209 220.083 25.1209H201.231Z" fill="white" stroke="#4A4848" stroke-width="0.628429" stroke-miterlimit="10"/>
<path d="M180.072 27.4142C180.828 27.4142 181.441 25.1468 181.441 22.3499C181.441 19.553 180.828 17.2856 180.072 17.2856H214.529C215.285 17.2856 215.898 19.553 215.898 22.3499C215.898 25.1468 215.285 27.4142 214.529 27.4142H180.072Z" fill="white" stroke="#4A4848" stroke-width="0.628429" stroke-miterlimit="10"/>
<path d="M220.194 25.9145C220.727 25.9145 221.158 24.3187 221.158 22.3501C221.158 20.3815 220.727 18.7856 220.194 18.7856H222.288C222.82 18.7856 223.252 20.3814 223.252 22.3501C223.252 24.3186 222.82 25.9145 222.288 25.9145H220.194Z" fill="#4A4848" stroke="#4A4848" stroke-width="0.628429" stroke-miterlimit="10"/>
<path d="M147.824 29.9503C148.959 29.9503 149.879 26.5474 149.879 22.3498C149.879 18.1522 148.959 14.7495 147.824 14.7495H199.537C200.672 14.7495 201.592 18.1523 201.592 22.3498C201.592 26.5474 200.672 29.9503 199.537 29.9503H147.824Z" fill="white" stroke="#4A4848" stroke-width="0.628429" stroke-miterlimit="10"/>
<path d="M133.197 34.7932V9.90674H128.931C127.073 9.90674 125.566 15.4778 125.566 22.35C125.566 29.2222 127.073 34.7933 128.931 34.7933H133.197V34.7932Z" fill="white" stroke="#4A4848" stroke-width="0.628429" stroke-miterlimit="10"/>
<path d="M130.808 9.90674C128.95 9.90674 127.444 15.4778 127.444 22.35C127.444 29.2222 128.95 34.7933 130.808 34.7933L132.779 29.9504V14.9758L130.808 9.90674Z" fill="#4A4848"/>
<path d="M132.971 32.7009C134.517 32.7009 135.77 28.0666 135.77 22.35C135.77 16.6334 134.516 11.999 132.971 11.999H176.42C177.966 11.999 179.219 16.6333 179.219 22.35C179.219 28.0666 177.966 32.7009 176.42 32.7009H132.971Z" fill="white" stroke="#4A4848" stroke-width="0.628429" stroke-miterlimit="10"/>
<path d="M132.509 34.0364C134.254 34.0364 135.669 28.8041 135.669 22.3498C135.669 15.8954 134.254 10.6631 132.509 10.6631H136.516C138.261 10.6631 139.676 15.8954 139.676 22.3498C139.676 28.8041 138.261 34.0364 136.516 34.0364H132.509Z" fill="white" stroke="#4A4848" stroke-width="0.628429" stroke-miterlimit="10"/>
<path d="M128.697 34.7933C130.555 34.7933 132.061 29.2222 132.061 22.35C132.061 15.4778 130.555 9.90674 128.697 9.90674H133.608C135.466 9.90674 136.973 15.4778 136.973 22.35C136.973 29.2222 135.466 34.7933 133.608 34.7933H128.697Z" fill="white" stroke="#4A4848" stroke-width="0.628429" stroke-miterlimit="10"/>
<path d="M146.936 25.9281C144.531 26.6053 149.359 35.237 149.359 35.237C149.359 35.237 149.359 42.9276 152.801 45.7893C156.243 48.6509 163.807 47.3505 162.787 41.9142C161.767 36.478 156.092 33.5167 156.092 33.5167C156.092 33.5167 150.761 24.8512 146.936 25.9281Z" fill="white"/>
<path d="M162.87 43.1896C162.898 42.7934 162.872 42.3682 162.787 41.9142C161.767 36.478 156.092 33.5167 156.092 33.5167C156.092 33.5167 150.761 24.8512 146.936 25.9281C144.531 26.6053 149.359 35.237 149.359 35.237C149.359 35.237 149.359 37.5766 149.936 40.1552" fill="white"/>
<path d="M162.87 43.1896C162.898 42.7934 162.872 42.3682 162.787 41.9142C161.767 36.478 156.092 33.5167 156.092 33.5167C156.092 33.5167 150.761 24.8512 146.936 25.9281C144.531 26.6053 149.359 35.237 149.359 35.237C149.359 35.237 149.359 37.5766 149.936 40.1552" stroke="#4A4848" stroke-width="0.628429" stroke-miterlimit="10" stroke-linecap="round" stroke-linejoin="round"/>
</svg>
