<svg width="20" height="20" viewBox="0 0 20 20" fill="none" xmlns="http://www.w3.org/2000/svg">
<path fill-rule="evenodd" clip-rule="evenodd" d="M9.15625 4.83332C9.15625 4.37309 9.53304 4 9.99784 4H17.6563C18.1211 4 18.4979 4.37309 18.4979 4.83332C18.4979 5.29355 18.1211 5.66664 17.6563 5.66664H9.99784C9.53304 5.66664 9.15625 5.29355 9.15625 4.83332Z" fill="#2D60FF"/>
<path fill-rule="evenodd" clip-rule="evenodd" d="M1.5 9.50129C1.5 9.04106 1.87679 8.66797 2.34159 8.66797H16.4803C16.9451 8.66797 17.3219 9.04106 17.3219 9.50129C17.3219 9.96152 16.9451 10.3346 16.4803 10.3346H2.34159C1.87679 10.3346 1.5 9.96152 1.5 9.50129Z" fill="#2D60FF"/>
<path fill-rule="evenodd" clip-rule="evenodd" d="M1.5 14.1654C1.5 13.7051 1.87679 13.332 2.34159 13.332H9.41093C9.87573 13.332 10.2525 13.7051 10.2525 14.1654C10.2525 14.6256 9.87573 14.9987 9.41093 14.9987H2.34159C1.87679 14.9987 1.5 14.6256 1.5 14.1654Z" fill="#2D60FF"/>
</svg>
