<svg width="25" height="25" viewBox="0 0 25 25" fill="none" xmlns="http://www.w3.org/2000/svg">
<path d="M12.499 0.5C12.981 0.500037 13.4315 0.687242 13.7725 1.02832L23.9707 11.2256L23.9717 11.2266V11.2275H23.9727C24.6727 11.9297 24.6723 13.0717 23.9717 13.7734C23.6303 14.1147 23.1791 14.3018 22.6973 14.3018H21.8203V22.3066C21.8203 23.5154 20.8362 24.4998 19.627 24.5H15.6367C15.5084 24.4999 15.4043 24.3959 15.4043 24.2676V18.3838C15.4043 17.4301 14.6295 16.6554 13.6758 16.6553H11.3223C10.3684 16.6553 9.59375 17.43 9.59375 18.3838V24.2676C9.59375 24.3958 9.48944 24.4998 9.36133 24.5H5.37109C4.16176 24.5 3.17774 23.5155 3.17773 22.3066V14.3018H2.27051C2.26284 14.3017 2.25506 14.3015 2.24805 14.3008L2.23535 14.2998L2.22168 14.2988L2.05273 14.2842C1.71999 14.2389 1.40971 14.1022 1.15137 13.8877L1.02637 13.7734C0.326262 13.0733 0.324117 11.933 1.02148 11.2305C1.02603 11.2259 1.03093 11.222 1.03223 11.2207L11.2246 1.02734C11.5657 0.686275 12.017 0.5 12.499 0.5Z" fill="#2D60FF" stroke="#2D60FF"/>
</svg>
