<svg width="20" height="25" viewBox="0 0 20 25" fill="none" xmlns="http://www.w3.org/2000/svg">
<path d="M9.01172 3.05566C10.7242 2.85861 12.121 3.33281 13.0518 4.28418C13.9849 5.23818 14.5158 6.73962 14.3555 8.72168C14.2877 9.55713 13.9954 10.5411 13.6074 11.4053C13.4085 11.4591 13.2014 11.5043 12.9883 11.5391C12.6778 11.3475 12.3178 11.2413 11.9414 11.2412H10.9053C9.80301 11.2412 8.90625 12.1358 8.90625 13.2383C8.90635 14.3405 9.80201 15.2373 10.9053 15.2373H11.6904C11.6985 15.368 11.7179 15.5026 11.7539 15.6396H11.7549C11.8466 15.9866 12.0889 16.2468 12.3271 16.4346C12.5715 16.627 12.8663 16.7868 13.1494 16.918C13.4351 17.0503 13.7308 17.163 13.9854 17.2578C14.2514 17.3569 14.4532 17.4295 14.5918 17.4902V17.4893C15.3869 17.8387 16.304 18.2588 17.0889 18.7871C17.8816 19.3207 18.4697 19.9197 18.6973 20.5967V20.5977C18.7495 20.7525 18.8078 21.0697 18.8203 21.4346C18.8329 21.8017 18.7965 22.1489 18.7051 22.3857L18.7041 22.3867C18.5455 22.7974 18.1607 23.162 17.5264 23.4707C16.8958 23.7775 16.0779 23.9993 15.1621 24.1553C13.3319 24.4668 11.2206 24.499 9.68457 24.499C7.98408 24.499 5.96202 24.4709 4.18164 24.1426C3.12123 23.9463 2.04441 23.6486 1.32812 23.1084C0.980405 22.8461 0.733213 22.5384 0.604492 22.168C0.475947 21.798 0.44959 21.3201 0.620117 20.6904C0.752688 20.2015 1.12871 19.7316 1.69824 19.2695C2.26317 18.8112 2.96353 18.4039 3.66309 18.0176L3.66406 18.0166C4.0791 17.7867 4.91043 17.3168 5.6748 17.0098C5.96253 16.8942 6.44508 16.7363 6.8252 16.5C7.23561 16.2448 7.62606 15.8437 7.68848 15.1953C7.73791 14.6885 7.59528 14.2946 7.3877 13.9561C7.28884 13.7948 7.17445 13.6447 7.06641 13.5068C6.95368 13.3631 6.84892 13.2341 6.74316 13.0889C5.75602 11.7308 4.84961 9.9143 5.01367 7.45605C5.17244 5.09733 6.61385 3.33185 9.01172 3.05566Z" stroke="#2D60FF"/>
<path d="M10.9053 12.9609H11.9414C12.0372 12.961 12.1251 13.0101 12.1787 13.0918L12.2627 13.2207L12.1865 13.3691C12.1375 13.4636 12.0454 13.5214 11.9414 13.5215H10.9053C10.75 13.5214 10.625 13.3964 10.625 13.2402C10.625 13.0869 10.7488 12.961 10.9053 12.9609ZM9.66113 0.5C13.6178 0.5 16.859 3.63092 17.0381 7.54395L17.0518 7.84473L17.3232 7.97363C17.5933 8.10181 17.7791 8.37666 17.7793 8.69434V11.2969C17.7793 11.7419 17.4207 12.1004 16.9775 12.1006H16.9121C16.7544 12.1006 16.608 12.0546 16.4824 11.9736L16.2598 11.8291L16.1689 11.5977C16.1312 11.5018 16.1104 11.4029 16.1104 11.2969V8.69434C16.1105 8.38201 16.2911 8.1102 16.5576 7.97754L16.8506 7.83203L16.834 7.50391C16.635 3.71898 13.4935 0.703125 9.66113 0.703125C5.82736 0.703216 2.68806 3.71918 2.48828 7.50391L2.4707 7.83203L2.76465 7.97852C3.03141 8.11095 3.21176 8.38212 3.21191 8.69434V11.2969C3.21191 11.7418 2.85244 12.1005 2.41016 12.1006H2.34375C1.90234 12.1004 1.54297 11.7421 1.54297 11.2969V8.69434C1.54312 8.37662 1.72892 8.10206 2 7.97363L2.27148 7.84473L2.28516 7.54395C2.46343 3.63108 5.70443 0.500092 9.66113 0.5Z" stroke="#2D60FF"/>
</svg>
