<svg width="25" height="25" viewBox="0 0 25 25" fill="none" xmlns="http://www.w3.org/2000/svg">
<path d="M7.13867 12.4941C7.38774 12.5429 7.63475 12.5819 7.88184 12.6074C8.08861 12.6288 8.29425 12.64 8.5 12.6455C7.98094 13.1446 7.69824 13.7966 7.69824 14.5186V18.5215C7.6984 19.0197 8.108 19.4051 8.59082 19.4053C9.6045 19.4053 10.6399 19.0763 11.4102 18.4658C12.1384 17.8886 12.6445 17.0512 12.6445 16.0166C12.6445 15.8439 12.7155 15.672 12.8545 15.4912C12.9083 15.4212 12.969 15.3548 13.0332 15.291L17.1465 19.3174V19.3164C17.3763 19.5413 17.6389 19.7167 17.9209 19.8447C18.0789 20.0066 18.2373 20.1684 18.3955 20.3311L18.3965 20.332C18.5381 20.4772 18.5258 20.6758 18.4102 20.7891C18.2819 20.9146 18.0569 20.9146 17.9287 20.7891C17.0699 19.9482 16.228 19.0902 15.3721 18.2314C15.0294 17.8872 14.4708 17.8799 14.1191 18.2148C13.7615 18.5555 13.7531 19.1208 14.1016 19.4717H14.1025L16.4395 21.8184V21.8193L16.4443 21.8232C16.5685 21.9448 16.5686 22.1439 16.4443 22.2656C16.3144 22.3927 16.0929 22.3926 15.9629 22.2656C15.5151 21.8272 15.0718 21.3841 14.6289 20.9395L13.2979 19.6016C12.9766 19.2785 12.4657 19.2517 12.1133 19.5254L12.0449 19.585C11.6873 19.9257 11.6786 20.491 12.0273 20.8418L14.3652 23.1885L14.3701 23.1924C14.4925 23.3122 14.4923 23.515 14.3701 23.6348C14.3316 23.6724 14.2477 23.712 14.126 23.71C14.0012 23.7079 13.917 23.6634 13.8877 23.6348C13.4014 23.1586 12.9195 22.679 12.4385 22.1973L10.9941 20.7461C10.6515 20.402 10.0928 20.3947 9.74121 20.7295C9.38369 21.0701 9.37524 21.6354 9.72363 21.9863L9.72461 21.9873L12.0615 24.334L12.0664 24.3379C12.1022 24.3729 12.1021 24.4322 12.0664 24.4678C12.0473 24.486 12.0177 24.4996 11.9834 24.5C11.9501 24.5003 11.9268 24.4889 11.9131 24.4756L11.6426 24.21C11.5498 24.1177 11.4361 24.0045 11.3066 23.875C10.9406 23.5088 10.4493 23.0153 9.94727 22.5107C8.94441 21.5027 7.89618 20.4475 7.7207 20.2715V20.2705C6.93509 19.4825 6.1794 18.7243 5.14551 18.1318L7.13867 12.4941ZM11.8877 24.4521C11.89 24.4541 11.8915 24.456 11.8926 24.457C11.891 24.4556 11.8886 24.4539 11.8857 24.4512L11.8877 24.4521ZM19.0781 10.5879C20.8932 9.90744 22.6976 9.71288 24.5 9.99805V18.6191H21.9189L19.0781 10.5879ZM0.5 9.99805C2.3021 9.71294 4.10611 9.90771 5.9209 10.5879L3.08105 18.6191H0.5V9.99805ZM13.457 11.207C13.9891 11.1816 14.5689 11.3259 15.3008 11.5527C16.0546 11.7863 16.8377 12.0287 17.7295 12.125L19.8252 18.0508C19.6767 18.1187 19.5261 18.1853 19.3691 18.248C19.017 18.3888 18.6622 18.3176 18.3975 18.0586L13.7031 13.4639H13.7021C13.3747 13.145 12.8626 13.128 12.5146 13.4092L12.5068 13.4141C12.5048 13.4157 12.5028 13.4173 12.502 13.418C12.5 13.4195 12.4983 13.4221 12.4961 13.4238C12.4913 13.4277 12.4841 13.4324 12.4766 13.4385C12.4615 13.4507 12.4413 13.4678 12.4209 13.4844C12.4005 13.5009 12.3797 13.518 12.3633 13.5312C12.3551 13.5379 12.348 13.5436 12.3428 13.5479C12.3391 13.5508 12.3368 13.5521 12.3359 13.5527V13.5537C11.8801 13.9139 10.8584 14.6904 10.8584 16.0166C10.8583 16.437 10.6549 16.8015 10.2949 17.0869C10.0702 17.265 9.79129 17.4069 9.4834 17.502V14.5186C9.4834 14.2632 9.56609 14.0739 9.75879 13.8965L11.9121 11.9141C12.4602 11.4095 12.9546 11.2311 13.457 11.207ZM14.4385 6.12598C15.0402 6.55847 15.4268 7.25155 15.4268 8.02148V9.12891H9.57324V8.02148C9.57324 7.25179 9.95916 6.5585 10.5605 6.12598C11.1103 6.50742 11.7801 6.73242 12.5 6.73242C13.2196 6.73241 13.8889 6.5072 14.4385 6.12598ZM20.1475 4.65332C20.7493 5.08577 21.1357 5.77884 21.1357 6.54883V7.65625H17.1934C17.0993 6.6142 16.6091 5.68409 15.875 5.01074C15.9928 4.87842 16.1245 4.75771 16.2695 4.65332C16.8192 5.03487 17.4892 5.25972 18.209 5.25977C18.9285 5.25977 19.5979 5.03448 20.1475 4.65332ZM8.72949 4.65332C8.87457 4.75769 9.00617 4.87842 9.12402 5.01074C8.39026 5.68405 7.90065 6.61445 7.80664 7.65625H3.86426V6.54883C3.86426 5.77906 4.25009 5.08579 4.85156 4.65332C5.40127 5.03476 6.07118 5.25977 6.79102 5.25977C7.51063 5.25972 8.17992 5.03458 8.72949 4.65332ZM12.5 1.97266C13.3793 1.97266 14.0632 2.65762 14.0635 3.46777C14.0635 4.27813 13.3794 4.96387 12.5 4.96387C11.6206 4.96387 10.9365 4.27813 10.9365 3.46777C10.9368 2.65763 11.6207 1.97266 12.5 1.97266ZM6.79102 0.5C7.67017 0.500114 8.35423 1.18503 8.35449 1.99512C8.35449 2.80541 7.67035 3.4911 6.79102 3.49121C5.91158 3.49121 5.22754 2.80547 5.22754 1.99512C5.22781 1.18497 5.91175 0.5 6.79102 0.5ZM18.209 0.5C19.0882 0.5 19.7722 1.18497 19.7725 1.99512C19.7725 2.80548 19.0884 3.49121 18.209 3.49121C17.3297 3.49107 16.6455 2.80539 16.6455 1.99512C16.6458 1.18505 17.3299 0.500142 18.209 0.5Z" stroke="#2D60FF"/>
</svg>
