<svg width="24" height="24" viewBox="0 0 24 24" fill="none" xmlns="http://www.w3.org/2000/svg">
<path d="M13.9824 21.5C13.4916 22.6728 12.3325 23.5 10.9844 23.5C9.63664 23.4999 8.47824 22.6727 7.9873 21.5H13.9824Z" stroke="#2D60FF"/>
<path d="M10.9209 2.50098C10.6412 3.28198 10.4854 4.1221 10.4854 5C10.4854 8.98269 13.605 12.2476 17.5283 12.4844C17.7057 14.3387 18.584 16.0724 20.0293 17.2842C20.3462 17.5506 20.5106 17.9356 20.4824 18.3379L20.458 18.5117C20.3413 19.075 19.7775 19.4999 19.1201 19.5H2.84473C2.21793 19.4999 1.6723 19.114 1.5293 18.5859C1.39868 18.102 1.5598 17.6115 1.91992 17.3027C3.55283 15.9222 4.4853 13.9147 4.48535 11.7881V9C4.48535 5.43144 7.36062 2.53534 10.9209 2.50098Z" stroke="#2D60FF"/>
<path d="M22.9843 5.00006C22.9843 7.76147 20.7458 9.99994 17.9843 9.99994C15.2228 9.99994 12.9844 7.76147 12.9844 5.00006C12.9844 2.23865 15.2228 0 17.9843 0C20.7458 0 22.9843 2.23865 22.9843 5.00006Z" fill="#2CDA3D"/>
</svg>
