<svg width="18" height="23" viewBox="0 0 18 23" fill="none" xmlns="http://www.w3.org/2000/svg">
<path d="M8.11621 2.80078C9.64497 2.62487 10.8859 3.04833 11.7109 3.8916C12.5384 4.73749 13.0135 6.07353 12.8701 7.84668C12.8102 8.58497 12.5527 9.45577 12.21 10.2246C12.0454 10.2683 11.8746 10.3048 11.6992 10.334C11.4157 10.1631 11.0887 10.0684 10.7471 10.0684H9.81445C8.7951 10.0685 7.96604 10.8954 7.96582 11.915C7.96582 12.9346 8.79392 13.7645 9.81445 13.7646H10.4756C10.4847 13.8704 10.5014 13.9787 10.5303 14.0889L10.5312 14.0898C10.6178 14.4173 10.8452 14.6601 11.0635 14.832C11.2878 15.0087 11.5571 15.1537 11.8135 15.2725C12.0725 15.3925 12.34 15.4947 12.5693 15.5801C12.8094 15.6695 12.9884 15.7333 13.1113 15.7871V15.7881C13.8269 16.1026 14.6492 16.4785 15.3516 16.9512C15.9731 17.3695 16.4479 17.8288 16.6904 18.335L16.7803 18.5547C16.8253 18.6881 16.8775 18.9686 16.8887 19.2939C16.8971 19.5398 16.88 19.7727 16.8379 19.96L16.7871 20.1309C16.6509 20.484 16.3174 20.8049 15.752 21.0801C15.1904 21.3533 14.4589 21.5514 13.6367 21.6914C11.9941 21.971 10.0982 22 8.71582 22C7.18516 22 5.36971 21.9752 3.77246 21.6807C2.81877 21.5041 1.86016 21.2373 1.22559 20.7588C0.918686 20.5273 0.702728 20.2576 0.59082 19.9355C0.479188 19.614 0.455123 19.1945 0.606445 18.6357C0.721746 18.2105 1.05122 17.796 1.56055 17.3828C2.06522 16.9734 2.6918 16.6084 3.32129 16.2607V16.2598C3.6955 16.0525 4.44127 15.6315 5.12598 15.3564C5.37996 15.2544 5.8219 15.1093 6.16895 14.8936C6.54635 14.6589 6.91159 14.2861 6.96973 13.6816C7.01549 13.2122 6.88241 12.8467 6.69141 12.5352C6.60085 12.3875 6.49676 12.2501 6.39941 12.126L6.10938 11.752C5.22511 10.5354 4.41588 8.91185 4.5625 6.71484C4.70406 4.61262 5.98552 3.04621 8.11621 2.80078Z" fill="#2D60FF" stroke="#2D60FF"/>
<path d="M9.81543 11.7148H10.748C10.8165 11.7149 10.8803 11.7502 10.9199 11.8105L10.9795 11.9014L10.9238 12.0098C10.8877 12.0791 10.8217 12.1191 10.748 12.1191H9.81543C9.70339 12.119 9.61328 12.029 9.61328 11.916C9.61341 11.8058 9.70232 11.715 9.81543 11.7148ZM8.69629 0.5C12.2303 0.500178 15.1253 3.29686 15.2852 6.79199L15.2988 7.09277L15.5703 7.2207C15.7968 7.32808 15.9521 7.55909 15.9521 7.8252V10.167C15.9521 10.5401 15.6516 10.8408 15.2803 10.8408H15.2217C15.0898 10.8408 14.9676 10.8022 14.8623 10.7344L14.6758 10.6133L14.5996 10.4199C14.5678 10.3391 14.5508 10.2558 14.5508 10.167V7.8252C14.5508 7.56381 14.701 7.33598 14.9248 7.22461L15.2178 7.0791L15.2012 6.75098C15.0208 3.3182 12.172 0.583184 8.69629 0.583008C5.21907 0.583008 2.37161 3.31826 2.19043 6.75098L2.17285 7.0791L2.4668 7.22559C2.69074 7.33676 2.84178 7.56392 2.8418 7.8252V10.167C2.8418 10.5399 2.54033 10.8407 2.16992 10.8408H2.11035C1.74067 10.8408 1.43945 10.5402 1.43945 10.167V7.8252C1.43947 7.55917 1.59501 7.32837 1.82227 7.2207L2.09375 7.09277L2.10742 6.79199C2.26658 3.29685 5.162 0.5 8.69629 0.5Z" stroke="#2D60FF"/>
</svg>
