<svg width="24" height="24" viewBox="0 0 24 24" fill="none" xmlns="http://www.w3.org/2000/svg">
<g clip-path="url(#clip0_1686_28699)">
<path d="M9.70117 0.5H14.3008C14.5952 0.5 14.8312 0.715633 14.8643 0.981445L14.8662 0.991211L15.2617 3.75195L15.3008 4.02441L15.5518 4.13672C16.0604 4.36519 16.5545 4.65204 17.0273 4.99316L17.251 5.1543L17.5059 5.05176L20.0996 4.00977C20.4069 3.89844 20.6832 4.02734 20.8105 4.25977L20.8174 4.27051L23.1045 8.22754V8.22852C23.2538 8.50261 23.1832 8.80619 22.9746 8.97266L20.7666 10.6992L20.5479 10.8701L20.5781 11.1475C20.6057 11.4006 20.627 11.6928 20.627 11.999C20.627 12.3045 20.6041 12.5967 20.5771 12.8525L20.5488 13.1279L20.7666 13.2988L22.9697 15.0205V15.0215C23.1864 15.1935 23.2522 15.5003 23.1104 15.7598L20.8115 19.7402L20.8057 19.751C20.7147 19.9174 20.5273 20.0322 20.3193 20.0322C20.2837 20.0322 20.2486 20.029 20.2139 20.0225L20.1094 19.9922L17.5039 18.9463L17.25 18.8438L17.0273 19.0029C16.529 19.3581 16.0431 19.6401 15.5518 19.8623L15.3018 19.9756L15.2627 20.2471L14.8662 23.0166L14.8643 23.0264C14.8326 23.2818 14.5987 23.5 14.3018 23.5H9.70215C9.40745 23.5 9.17085 23.285 9.1377 23.0166L9.13672 23.0068L8.74121 20.2471L8.70215 19.9756L8.45117 19.8623L8.07227 19.6797C7.69651 19.4862 7.33039 19.2609 6.97656 19.0059L6.75293 18.8447L6.49707 18.9473L3.9082 19.9863C3.59513 20.1013 3.32087 19.9727 3.19238 19.7383L3.18652 19.7285L0.896484 15.7676C0.749743 15.4956 0.81985 15.1932 1.02734 15.0264L3.23535 13.2998L3.4541 13.1299L3.4248 12.8545C3.39118 12.5295 3.37598 12.2541 3.37598 12C3.37598 11.7459 3.39116 11.4703 3.4248 11.1465L3.4541 10.8711L3.23535 10.7012L1.03027 8.97656C0.807157 8.79812 0.750433 8.47951 0.892578 8.23926L0.894531 8.23535L3.19043 4.26074L3.19141 4.26172L3.19824 4.25C3.31793 4.03077 3.63437 3.90706 3.89551 4.00781L6.5 5.05371L6.75293 5.15625L6.97559 4.99707C7.47334 4.64267 7.96038 4.35972 8.45117 4.13867L8.70215 4.02637L8.74121 3.75391L9.1377 0.983398L9.13867 0.973633C9.17045 0.717526 9.40482 0.5 9.70117 0.5ZM12.001 7.5C9.51885 7.5 7.50098 9.51787 7.50098 12C7.50098 14.4821 9.51885 16.5 12.001 16.5C14.483 16.4999 16.501 14.4821 16.501 12C16.501 9.51793 14.483 7.5001 12.001 7.5Z" stroke="#2D60FF"/>
</g>
<defs>
<clipPath id="clip0_1686_28699">
<rect width="24" height="24" fill="white"/>
</clipPath>
</defs>
</svg>
