<svg width="24" height="22" viewBox="0 0 24 22" fill="none" xmlns="http://www.w3.org/2000/svg">
<path d="M9.3291 15.9077C10.1228 16.5288 11.1035 16.8705 12.1182 16.8706C13.1321 16.8706 14.1129 16.5298 14.9062 15.9097C16.6826 16.9365 17.4901 18.6842 17.3271 20.7749L17.3252 20.7935V20.812C17.3247 20.9854 17.2554 21.1513 17.1328 21.2739C17.0102 21.3964 16.8442 21.4658 16.6709 21.4663H7.57031C7.39693 21.4658 7.231 21.3965 7.1084 21.2739C7.01639 21.1819 6.95405 21.0656 6.92871 20.9399L6.91602 20.812V19.9282C6.91813 19.2927 7.05451 18.6645 7.31641 18.0854C7.57838 17.5063 7.96054 16.9891 8.43652 16.5679L8.44336 16.562C8.71471 16.3128 9.0114 16.0931 9.3291 15.9077Z" stroke="#2D2D2D"/>
<path d="M12.1191 9.6709C12.8279 9.6717 13.5072 9.95342 14.0088 10.4541C14.5094 10.954 14.791 11.6316 14.7939 12.3389C14.6547 15.8818 9.5758 15.8794 9.44336 12.3311C9.4483 11.6266 9.73077 10.9521 10.2295 10.4541C10.731 9.9534 11.4105 9.67178 12.1191 9.6709Z" stroke="#2D2D2D"/>
<path d="M22.252 11.4614C22.5844 11.7232 22.8643 12.0473 23.0742 12.4175C23.3457 12.8963 23.4923 13.4355 23.5 13.9858V14.605C23.5 14.6625 23.4888 14.7198 23.4668 14.7729C23.4448 14.8261 23.4128 14.8748 23.3721 14.9155C23.3314 14.9562 23.2827 14.9882 23.2295 15.0103C23.1763 15.0323 23.1191 15.0435 23.0615 15.0435H16.6377C16.5213 15.043 16.4095 14.9969 16.3271 14.9146C16.2448 14.8322 16.1986 14.7204 16.1982 14.604V14.5796L16.1963 14.5562L16.1787 14.2847C16.1623 13.6545 16.3037 13.0287 16.5908 12.4644C16.8128 12.0798 17.1053 11.7422 17.4512 11.4673C17.6091 11.6024 17.7772 11.7253 17.957 11.8306C18.6883 12.2582 19.5434 12.4255 20.3818 12.3042C21.0749 12.2039 21.7204 11.9084 22.252 11.4614Z" stroke="#2D2D2D"/>
<path d="M19.8506 6.76318C22.3187 6.85809 22.3022 10.3994 19.8506 10.4917C17.3995 10.4019 17.3825 6.85636 19.8506 6.76318Z" stroke="#2D2D2D"/>
<path d="M6.55371 11.4634C6.88562 11.7244 7.16512 12.0474 7.375 12.4165C7.61333 12.8357 7.75606 13.3017 7.79297 13.7808L7.80176 13.9868V14.605C7.80115 14.7211 7.75501 14.8324 7.67285 14.9146C7.59047 14.9969 7.47881 15.0431 7.3623 15.0435H0.938477C0.880892 15.0435 0.823718 15.0323 0.770508 15.0103C0.717365 14.9882 0.668604 14.9562 0.62793 14.9155C0.587275 14.8748 0.555207 14.8261 0.533203 14.7729C0.511222 14.7198 0.499983 14.6625 0.5 14.605V13.9849C0.50637 13.4342 0.652629 12.8943 0.924805 12.4155C1.13454 12.0466 1.41397 11.7236 1.74609 11.4634C2.02244 11.6987 2.33196 11.8937 2.66602 12.0396C3.13434 12.244 3.64034 12.3491 4.15137 12.3491C4.6622 12.3491 5.16758 12.2439 5.63574 12.0396C5.96928 11.8939 6.27769 11.6982 6.55371 11.4634Z" stroke="#2D2D2D"/>
<path d="M4.14941 6.76318C6.6177 6.85583 6.60087 10.4017 4.14941 10.4917C1.69813 10.3996 1.68155 6.85861 4.14941 6.76318Z" stroke="#2D2D2D"/>
<path d="M12.001 0.5C12.0742 0.499872 12.1454 0.523031 12.2051 0.56543C12.2627 0.60636 12.3065 0.663369 12.3311 0.729492C12.3323 0.733663 12.3337 0.738004 12.335 0.742188C12.3394 0.756449 12.3459 0.776976 12.3535 0.800781C12.3688 0.8487 12.391 0.916542 12.417 0.99707C12.4692 1.15849 12.5387 1.37351 12.6084 1.58789C12.7451 2.00859 12.889 2.44979 12.8926 2.45996L13.0117 2.79395L13.3662 2.79199L15.1494 2.7832C15.2223 2.78422 15.2929 2.80837 15.3516 2.85156C15.4103 2.89477 15.454 2.95515 15.4766 3.02441C15.4991 3.09377 15.4996 3.16878 15.4775 3.23828C15.456 3.30594 15.4145 3.36579 15.3584 3.40918L13.9014 4.46777L13.6064 4.68164L13.7207 5.02832L14.2822 6.73047V6.73145C14.3051 6.80002 14.3056 6.87463 14.2832 6.94336C14.2664 6.99488 14.2375 7.04141 14.1992 7.0791L14.1523 7.11816L14.1465 7.12207C14.0904 7.16459 14.0216 7.18746 13.9512 7.1875C13.8807 7.1875 13.812 7.16463 13.7559 7.12207L13.7471 7.11621L12.2852 6.05762L11.9902 5.84375L11.6963 6.05859L10.252 7.11719L10.248 7.12012C10.1911 7.16278 10.122 7.18651 10.0508 7.18652C9.97959 7.18652 9.91049 7.16279 9.85352 7.12012L9.84375 7.11328L9.80273 7.0791C9.76445 7.04141 9.7356 6.9949 9.71875 6.94336C9.69636 6.87463 9.69687 6.80002 9.71973 6.73145L9.7207 6.72852L10.2773 5.01367L10.3906 4.66699L10.0938 4.45312L8.6416 3.40723C8.58654 3.36398 8.54566 3.30512 8.52441 3.23828C8.50237 3.16876 8.50285 3.09378 8.52539 3.02441C8.548 2.95518 8.59173 2.89476 8.65039 2.85156C8.7091 2.80839 8.77966 2.78418 8.85254 2.7832H11.0156L11.127 2.43555L11.6689 0.738281C11.6925 0.669211 11.7367 0.609081 11.7959 0.566406C11.8555 0.523626 11.9276 0.500196 12.001 0.5Z" stroke="#2D2D2D"/>
</svg>
