<svg width="24" height="24" viewBox="0 0 24 24" fill="none" xmlns="http://www.w3.org/2000/svg">
<path d="M16.2617 9.03125C20.2503 9.03125 23.4961 12.277 23.4961 16.2656C23.4961 20.2542 20.2503 23.5 16.2617 23.5C12.2731 23.5 9.02734 20.2542 9.02734 16.2656C9.02734 12.277 12.2731 9.03125 16.2617 9.03125ZM15.0586 12.5547C14.228 12.9881 13.6523 13.8515 13.6523 14.8594C13.6523 15.8639 14.223 16.7359 15.0566 17.1719H13.6523V17.6719C13.6523 18.6796 14.2283 19.5422 15.0586 19.9756V21.6875H17.4648V19.9756C18.2952 19.5422 18.8711 18.6796 18.8711 17.6719C18.8711 16.6674 18.3004 15.7954 17.4668 15.3594H18.8711V14.8594C18.8711 13.8515 18.2954 12.9881 17.4648 12.5547V10.8438H15.0586V12.5547ZM16.2617 17.4688C16.3735 17.4688 16.4648 17.5601 16.4648 17.6719C16.4648 17.7837 16.3735 17.875 16.2617 17.875C16.1499 17.875 16.0586 17.7837 16.0586 17.6719V17.458C16.1257 17.4632 16.1933 17.4688 16.2617 17.4688ZM16.2617 14.6562C16.3735 14.6562 16.4648 14.7476 16.4648 14.8594V15.0723C16.3978 15.0671 16.3301 15.0625 16.2617 15.0625C16.1499 15.0625 16.0586 14.9712 16.0586 14.8594C16.0586 14.7476 16.1499 14.6562 16.2617 14.6562Z" stroke="#2D2D2D"/>
<path d="M7.82812 0.5C9.92784 0.5 11.7733 0.972526 13.0762 1.70508C14.3943 2.44627 15.0625 3.38976 15.0625 4.3125C15.0625 5.23137 14.3993 6.1516 13.082 6.87012C11.7792 7.58072 9.93198 8.03125 7.82812 8.03125C5.7242 8.03125 3.85224 7.58039 2.52441 6.86816C1.17894 6.14642 0.5 5.22533 0.5 4.3125C0.5 3.39583 1.18342 2.45141 2.5293 1.70703C3.85718 0.972725 5.72816 0.5 7.82812 0.5Z" stroke="#2D2D2D"/>
<path d="M0.5 16.8774C2.10894 18.0093 4.42228 18.7123 6.98438 18.8403C7.1634 19.4851 7.4078 20.1022 7.70996 20.6851C5.65412 20.6685 3.82733 20.2228 2.52441 19.5239C1.17894 18.8022 0.5 17.8811 0.5 16.9683V16.8774Z" stroke="#2D2D2D"/>
<path d="M0.5 12.6587C2.06482 13.7595 4.29567 14.4578 6.77441 14.6128C6.67858 15.1476 6.62501 15.6989 6.625 16.2651C6.625 16.3086 6.62783 16.352 6.62891 16.395C4.91576 16.2499 3.41594 15.8067 2.32715 15.1792C1.10951 14.4774 0.5 13.6117 0.5 12.7495V12.6587Z" stroke="#2D2D2D"/>
<path d="M0.5 8.44092C2.27937 9.6971 4.91831 10.437 7.82812 10.437C8.09413 10.437 8.35532 10.4273 8.6123 10.4136C8.18005 10.9784 7.80853 11.5917 7.50781 12.2446C5.53449 12.2014 3.78446 11.7623 2.52441 11.0864C1.17894 10.3647 0.5 9.44359 0.5 8.53076V8.44092Z" stroke="#2D2D2D"/>
</svg>
