<svg width="24" height="24" viewBox="0 0 24 24" fill="none" xmlns="http://www.w3.org/2000/svg">
<g clip-path="url(#clip0_1686_30861)">
<path fill-rule="evenodd" clip-rule="evenodd" d="M23.1707 17.3497L22.3645 17.0393C22.3497 17.0336 22.3395 17.022 22.3357 17.0066C22.2281 16.5652 22.0529 16.1431 21.8168 15.7549C21.8085 15.7413 21.8075 15.7259 21.814 15.7114L22.1648 14.9214C22.1729 14.9032 22.1691 14.8831 22.1551 14.8691L21.208 13.922C21.194 13.908 21.1738 13.9043 21.1558 13.9123L20.3655 14.2633C20.351 14.2697 20.3356 14.2687 20.322 14.2605C19.9339 14.0244 19.512 13.8493 19.0706 13.7416C19.0552 13.7379 19.0436 13.7277 19.0379 13.7129L18.7275 12.9065C18.7204 12.888 18.7035 12.8764 18.6837 12.8764H17.3443C17.3245 12.8764 17.3076 12.888 17.3005 12.9065L16.9901 13.7129C16.9843 13.7277 16.9728 13.7379 16.9573 13.7416C16.516 13.8493 16.094 14.0244 15.7059 14.2605C15.6923 14.2687 15.677 14.2697 15.6624 14.2633L14.8722 13.9123C14.854 13.9042 14.8339 13.908 14.8198 13.922L13.8727 14.8691C13.8587 14.8831 13.855 14.9033 13.863 14.9214L14.214 15.7116C14.2204 15.7261 14.2194 15.7415 14.2112 15.7551C13.9751 16.1432 13.8 16.5653 13.6924 17.0066C13.6886 17.022 13.6784 17.0336 13.6636 17.0393L12.8573 17.3497C12.8388 17.3568 12.8271 17.3737 12.8271 17.3936V18.7329C12.8271 18.7528 12.8388 18.7697 12.8573 18.7768L13.6634 19.0871C13.6783 19.0928 13.6885 19.1044 13.6922 19.1198C13.7999 19.5612 13.975 19.9833 14.2111 20.3715C14.2194 20.385 14.2204 20.4005 14.2139 20.415L13.8631 21.205C13.8551 21.2231 13.8588 21.2433 13.8728 21.2573L14.8199 22.2044C14.8339 22.2184 14.8541 22.2222 14.8722 22.2141L15.6625 21.8632C15.677 21.8567 15.6924 21.8577 15.706 21.8659C16.0941 22.102 16.516 22.2771 16.9574 22.3847C16.9728 22.3885 16.9844 22.3987 16.9901 22.4135L17.3005 23.2199C17.3076 23.2384 17.3246 23.25 17.3444 23.25H18.6838C18.7036 23.25 18.7205 23.2384 18.7276 23.2199L19.0379 22.4137C19.0437 22.3989 19.0552 22.3887 19.0707 22.3849C19.5121 22.2773 19.9342 22.1021 20.3224 21.866C20.336 21.8578 20.3514 21.8567 20.3659 21.8632L21.1559 22.2141C21.174 22.2221 21.1942 22.2184 21.2082 22.2044L22.1553 21.2573C22.1693 21.2432 22.1731 21.2231 22.165 21.2049L21.8141 20.4147C21.8076 20.4001 21.8086 20.3848 21.8169 20.3712C22.0529 19.983 22.2281 19.5611 22.3356 19.1198C22.3394 19.1043 22.3496 19.0928 22.3644 19.087L23.1708 18.7766C23.1893 18.7695 23.2009 18.7526 23.2009 18.7327V17.3934C23.2008 17.3737 23.1892 17.3568 23.1707 17.3497ZM18.014 20.5369C16.6476 20.5369 15.5402 19.4295 15.5402 18.0632C15.5402 16.6969 16.6476 15.5895 18.014 15.5895C19.3803 15.5895 20.4877 16.6969 20.4877 18.0632C20.4877 19.4295 19.3803 20.5369 18.014 20.5369ZM9.86033 6.20963C7.89556 6.20963 6.30275 7.80239 6.30275 9.7672C6.30275 11.732 7.89552 13.3248 9.86033 13.3248C11.8251 13.3248 13.4179 11.732 13.4179 9.7672C13.418 7.80239 11.8251 6.20963 9.86033 6.20963ZM11.9262 9.13552L9.77408 11.2876C9.46292 11.5988 9.04667 11.4723 8.77072 11.1964L7.79455 10.2202C7.55042 9.97613 7.55047 9.5767 7.79455 9.33262C8.03863 9.08855 8.43805 9.0885 8.68213 9.33262L9.31803 9.96853L11.0386 8.24794C11.2827 8.00386 11.6821 8.00386 11.9262 8.24794C12.1703 8.49202 12.1703 8.89144 11.9262 9.13552ZM17.438 8.01497C17.2475 7.21383 16.9299 6.44859 16.4981 5.74748L17.1522 4.27486L15.416 2.53875L13.943 3.19298C13.2419 2.76136 12.4769 2.44383 11.6761 2.25319L11.0975 0.75H8.64223L8.06356 2.25319C7.2627 2.44378 6.4977 2.76131 5.79669 3.19298L4.32369 2.5388L2.58753 4.27495L3.24172 5.74786C2.81 6.44888 2.49247 7.21392 2.30188 8.01492L0.798828 8.5935V11.0487L2.30169 11.6272C2.49233 12.4282 2.80981 13.1936 3.24167 13.8947L2.58763 15.3673L4.32378 17.1034L5.79688 16.4491C6.49789 16.8808 7.26284 17.1983 8.06375 17.3889L8.64238 18.8921H11.0976L11.676 17.3893C11.8136 17.3565 11.9501 17.3201 12.0853 17.2799C12.1259 16.9972 12.3158 16.7544 12.5879 16.6497L13.0667 16.4655C13.1522 16.2005 13.2591 15.9428 13.3861 15.695L13.1777 15.2258C13.0444 14.9256 13.1103 14.571 13.3425 14.3387L14.2896 13.3916C14.5219 13.1594 14.8764 13.0935 15.1767 13.2268L15.646 13.4352C15.8937 13.3083 16.1514 13.2014 16.4163 13.1158L16.6006 12.637C16.7139 12.3427 16.9886 12.1445 17.3008 12.1275C17.352 11.9625 17.3977 11.7956 17.4378 11.6272L18.941 11.0486V8.59336L17.438 8.01497ZM9.86984 15.3135C6.83642 15.3135 4.37736 12.8545 4.37736 9.82102C4.37736 6.78759 6.83642 4.32853 9.86984 4.32853C12.9033 4.32853 15.3623 6.78759 15.3623 9.82102C15.3623 12.8545 12.9033 15.3135 9.86984 15.3135Z" stroke="#2D2D2D"/>
</g>
<defs>
<clipPath id="clip0_1686_30861">
<rect width="24" height="24" fill="white"/>
</clipPath>
</defs>
</svg>
