<svg width="24" height="24" viewBox="0 0 24 24" fill="none" xmlns="http://www.w3.org/2000/svg">
<mask id="path-1-outside-1_1675_21392" maskUnits="userSpaceOnUse" x="0" y="0" width="24" height="24" fill="black">
<rect fill="white" width="24" height="24"/>
<path d="M4.41379 7.82759V6.31034C4.41379 3.38218 6.79598 1 9.72414 1C12.6523 1 15.0345 3.38218 15.0345 6.31034V7.82759H12.3793V6.31034C12.3793 4.84393 11.1906 3.65517 9.72414 3.65517C8.25772 3.65517 7.06897 4.84393 7.06897 6.31034V7.82759H4.41379ZM5.93103 20.7241C4.67605 20.7241 3.65517 19.7033 3.65517 18.4483V14.6552C3.65517 13.4002 4.67605 12.3793 5.93103 12.3793H18.4483V10.4828C18.4483 9.43708 17.5974 8.58621 16.5517 8.58621H2.89655C1.85087 8.58621 1 9.43708 1 10.4828V21.1034C1 22.1491 1.85087 23 2.89655 23H16.5517C17.5974 23 18.4483 22.1491 18.4483 21.1034V20.7241H5.93103ZM23 14.6552V18.4483C23 19.2849 22.3196 19.9655 21.4828 19.9655H5.93103C5.09424 19.9655 4.41379 19.2849 4.41379 18.4483V14.6552C4.41379 13.8186 5.09424 13.1379 5.93103 13.1379H21.4828C22.3196 13.1379 23 13.8186 23 14.6552ZM8.7759 16.5517L9.19223 16.3113C9.37373 16.2065 9.43598 15.9744 9.33113 15.7931C9.22595 15.6114 8.9937 15.5494 8.81292 15.6542L8.39655 15.8946V15.4138C8.39655 15.2044 8.22689 15.0345 8.01724 15.0345C7.8076 15.0345 7.63793 15.2044 7.63793 15.4138V15.8946L7.22156 15.6542C7.04006 15.5494 6.80815 15.6114 6.70335 15.7931C6.59851 15.9744 6.66075 16.2065 6.84225 16.3113L7.25858 16.5517L6.84225 16.7921C6.66075 16.897 6.59851 17.129 6.70335 17.3103C6.77371 17.432 6.90116 17.5 7.03229 17.5C7.09673 17.5 7.16193 17.4837 7.22156 17.4492L7.63793 17.2088V17.6896C7.63793 17.8991 7.8076 18.0689 8.01724 18.0689C8.22689 18.0689 8.39655 17.8991 8.39655 17.6896V17.2088L8.81292 17.4492C8.87255 17.4837 8.93775 17.5 9.0022 17.5C9.13332 17.5 9.26073 17.432 9.33113 17.3103C9.43598 17.129 9.37373 16.897 9.19223 16.7921L8.7759 16.5517ZM12.569 16.5517L12.9853 16.3113C13.1668 16.2065 13.2291 15.9744 13.1242 15.7931C13.0191 15.6114 12.7868 15.5494 12.606 15.6542L12.1897 15.8946V15.4138C12.1897 15.2044 12.02 15.0345 11.8103 15.0345C11.6007 15.0345 11.431 15.2044 11.431 15.4138V15.8946L11.0147 15.6542C10.8332 15.5494 10.6013 15.6114 10.4965 15.7931C10.3916 15.9744 10.4539 16.2065 10.6354 16.3113L11.0517 16.5517L10.6354 16.7921C10.4539 16.897 10.3916 17.129 10.4965 17.3103C10.5668 17.432 10.6943 17.5 10.8254 17.5C10.8898 17.5 10.955 17.4837 11.0147 17.4492L11.431 17.2088V17.6896C11.431 17.8991 11.6007 18.0689 11.8103 18.0689C12.02 18.0689 12.1897 17.8991 12.1897 17.6896V17.2088L12.606 17.4492C12.6657 17.4837 12.7309 17.5 12.7953 17.5C12.9264 17.5 13.0538 17.432 13.1242 17.3103C13.2291 17.129 13.1668 16.897 12.9853 16.7921L12.569 16.5517ZM16.3621 16.5517L16.7784 16.3113C16.9599 16.2065 17.0222 15.9744 16.9173 15.7931C16.8125 15.6114 16.5799 15.5494 16.3991 15.6542L15.9828 15.8946V15.4138C15.9828 15.2044 15.8131 15.0345 15.6034 15.0345C15.3938 15.0345 15.2241 15.2044 15.2241 15.4138V15.8946L14.8078 15.6542C14.6263 15.5494 14.3944 15.6114 14.2896 15.7931C14.1847 15.9744 14.247 16.2065 14.4285 16.3113L14.8448 16.5517L14.4285 16.7921C14.247 16.897 14.1847 17.129 14.2896 17.3103C14.3599 17.432 14.4874 17.5 14.6185 17.5C14.6829 17.5 14.7481 17.4837 14.8078 17.4492L15.2241 17.2088V17.6896C15.2241 17.8991 15.3938 18.0689 15.6034 18.0689C15.8131 18.0689 15.9828 17.8991 15.9828 17.6896V17.2088L16.3991 17.4492C16.4588 17.4837 16.524 17.5 16.5884 17.5C16.7195 17.5 16.8469 17.432 16.9173 17.3103C17.0222 17.129 16.9599 16.897 16.7784 16.7921L16.3621 16.5517ZM20.1552 16.5517L20.5715 16.3113C20.753 16.2065 20.8153 15.9744 20.7104 15.7931C20.6053 15.6114 20.373 15.5494 20.1922 15.6542L19.7759 15.8946V15.4138C19.7759 15.2044 19.6062 15.0345 19.3966 15.0345C19.1869 15.0345 19.0172 15.2044 19.0172 15.4138V15.8946L18.6009 15.6542C18.4194 15.5494 18.1875 15.6114 18.0827 15.7931C17.9778 15.9744 18.0401 16.2065 18.2216 16.3113L18.6379 16.5517L18.2216 16.7921C18.0401 16.897 17.9778 17.129 18.0827 17.3103C18.153 17.432 18.2805 17.5 18.4116 17.5C18.476 17.5 18.5412 17.4837 18.6009 17.4492L19.0172 17.2088V17.6896C19.0172 17.8991 19.1869 18.0689 19.3966 18.0689C19.6062 18.0689 19.7759 17.8991 19.7759 17.6896V17.2088L20.1922 17.4492C20.2519 17.4837 20.3171 17.5 20.3815 17.5C20.5126 17.5 20.64 17.432 20.7104 17.3103C20.8153 17.129 20.753 16.897 20.5715 16.7921L20.1552 16.5517Z"/>
</mask>
<path d="M4.41379 7.82759V6.31034C4.41379 3.38218 6.79598 1 9.72414 1C12.6523 1 15.0345 3.38218 15.0345 6.31034V7.82759H12.3793V6.31034C12.3793 4.84393 11.1906 3.65517 9.72414 3.65517C8.25772 3.65517 7.06897 4.84393 7.06897 6.31034V7.82759H4.41379ZM5.93103 20.7241C4.67605 20.7241 3.65517 19.7033 3.65517 18.4483V14.6552C3.65517 13.4002 4.67605 12.3793 5.93103 12.3793H18.4483V10.4828C18.4483 9.43708 17.5974 8.58621 16.5517 8.58621H2.89655C1.85087 8.58621 1 9.43708 1 10.4828V21.1034C1 22.1491 1.85087 23 2.89655 23H16.5517C17.5974 23 18.4483 22.1491 18.4483 21.1034V20.7241H5.93103ZM23 14.6552V18.4483C23 19.2849 22.3196 19.9655 21.4828 19.9655H5.93103C5.09424 19.9655 4.41379 19.2849 4.41379 18.4483V14.6552C4.41379 13.8186 5.09424 13.1379 5.93103 13.1379H21.4828C22.3196 13.1379 23 13.8186 23 14.6552ZM8.7759 16.5517L9.19223 16.3113C9.37373 16.2065 9.43598 15.9744 9.33113 15.7931C9.22595 15.6114 8.9937 15.5494 8.81292 15.6542L8.39655 15.8946V15.4138C8.39655 15.2044 8.22689 15.0345 8.01724 15.0345C7.8076 15.0345 7.63793 15.2044 7.63793 15.4138V15.8946L7.22156 15.6542C7.04006 15.5494 6.80815 15.6114 6.70335 15.7931C6.59851 15.9744 6.66075 16.2065 6.84225 16.3113L7.25858 16.5517L6.84225 16.7921C6.66075 16.897 6.59851 17.129 6.70335 17.3103C6.77371 17.432 6.90116 17.5 7.03229 17.5C7.09673 17.5 7.16193 17.4837 7.22156 17.4492L7.63793 17.2088V17.6896C7.63793 17.8991 7.8076 18.0689 8.01724 18.0689C8.22689 18.0689 8.39655 17.8991 8.39655 17.6896V17.2088L8.81292 17.4492C8.87255 17.4837 8.93775 17.5 9.0022 17.5C9.13332 17.5 9.26073 17.432 9.33113 17.3103C9.43598 17.129 9.37373 16.897 9.19223 16.7921L8.7759 16.5517ZM12.569 16.5517L12.9853 16.3113C13.1668 16.2065 13.2291 15.9744 13.1242 15.7931C13.0191 15.6114 12.7868 15.5494 12.606 15.6542L12.1897 15.8946V15.4138C12.1897 15.2044 12.02 15.0345 11.8103 15.0345C11.6007 15.0345 11.431 15.2044 11.431 15.4138V15.8946L11.0147 15.6542C10.8332 15.5494 10.6013 15.6114 10.4965 15.7931C10.3916 15.9744 10.4539 16.2065 10.6354 16.3113L11.0517 16.5517L10.6354 16.7921C10.4539 16.897 10.3916 17.129 10.4965 17.3103C10.5668 17.432 10.6943 17.5 10.8254 17.5C10.8898 17.5 10.955 17.4837 11.0147 17.4492L11.431 17.2088V17.6896C11.431 17.8991 11.6007 18.0689 11.8103 18.0689C12.02 18.0689 12.1897 17.8991 12.1897 17.6896V17.2088L12.606 17.4492C12.6657 17.4837 12.7309 17.5 12.7953 17.5C12.9264 17.5 13.0538 17.432 13.1242 17.3103C13.2291 17.129 13.1668 16.897 12.9853 16.7921L12.569 16.5517ZM16.3621 16.5517L16.7784 16.3113C16.9599 16.2065 17.0222 15.9744 16.9173 15.7931C16.8125 15.6114 16.5799 15.5494 16.3991 15.6542L15.9828 15.8946V15.4138C15.9828 15.2044 15.8131 15.0345 15.6034 15.0345C15.3938 15.0345 15.2241 15.2044 15.2241 15.4138V15.8946L14.8078 15.6542C14.6263 15.5494 14.3944 15.6114 14.2896 15.7931C14.1847 15.9744 14.247 16.2065 14.4285 16.3113L14.8448 16.5517L14.4285 16.7921C14.247 16.897 14.1847 17.129 14.2896 17.3103C14.3599 17.432 14.4874 17.5 14.6185 17.5C14.6829 17.5 14.7481 17.4837 14.8078 17.4492L15.2241 17.2088V17.6896C15.2241 17.8991 15.3938 18.0689 15.6034 18.0689C15.8131 18.0689 15.9828 17.8991 15.9828 17.6896V17.2088L16.3991 17.4492C16.4588 17.4837 16.524 17.5 16.5884 17.5C16.7195 17.5 16.8469 17.432 16.9173 17.3103C17.0222 17.129 16.9599 16.897 16.7784 16.7921L16.3621 16.5517ZM20.1552 16.5517L20.5715 16.3113C20.753 16.2065 20.8153 15.9744 20.7104 15.7931C20.6053 15.6114 20.373 15.5494 20.1922 15.6542L19.7759 15.8946V15.4138C19.7759 15.2044 19.6062 15.0345 19.3966 15.0345C19.1869 15.0345 19.0172 15.2044 19.0172 15.4138V15.8946L18.6009 15.6542C18.4194 15.5494 18.1875 15.6114 18.0827 15.7931C17.9778 15.9744 18.0401 16.2065 18.2216 16.3113L18.6379 16.5517L18.2216 16.7921C18.0401 16.897 17.9778 17.129 18.0827 17.3103C18.153 17.432 18.2805 17.5 18.4116 17.5C18.476 17.5 18.5412 17.4837 18.6009 17.4492L19.0172 17.2088V17.6896C19.0172 17.8991 19.1869 18.0689 19.3966 18.0689C19.6062 18.0689 19.7759 17.8991 19.7759 17.6896V17.2088L20.1922 17.4492C20.2519 17.4837 20.3171 17.5 20.3815 17.5C20.5126 17.5 20.64 17.432 20.7104 17.3103C20.8153 17.129 20.753 16.897 20.5715 16.7921L20.1552 16.5517Z" stroke="#2D2D2D" stroke-width="2" mask="url(#path-1-outside-1_1675_21392)"/>
</svg>
