<svg width="25" height="19" viewBox="0 0 25 19" fill="none" xmlns="http://www.w3.org/2000/svg">
<path d="M4.16895 7.60352C4.43426 7.60352 4.68134 7.69481 4.88184 7.85156L5.05957 7.99023L5.17871 8.18945C5.29195 8.37825 5.35741 8.60033 5.35742 8.83984C5.35742 9.53433 4.81099 10.0762 4.16895 10.0762C3.52664 10.0761 2.98047 9.53395 2.98047 8.83984C2.9805 8.14603 3.52692 7.60412 4.16895 7.60352ZM15.2783 5.8623C15.5367 5.8623 15.7764 5.94815 15.9736 6.09668L16.1553 6.2334L16.2764 6.42773C16.3964 6.62046 16.4677 6.85 16.4678 7.09766C16.4678 7.79215 15.9204 8.33398 15.2783 8.33398C14.636 8.33387 14.0898 7.79174 14.0898 7.09766C14.0899 6.94388 14.1163 6.79796 14.165 6.66406L14.2451 6.44434L14.3945 6.27246C14.6156 6.01738 14.932 5.86237 15.2783 5.8623ZM9.72363 2.42969C10.3655 2.42974 10.9121 2.97199 10.9121 3.66602C10.9121 3.8198 10.8856 3.96571 10.8369 4.09961L10.7559 4.31836L10.6074 4.49121C10.3863 4.74633 10.07 4.90134 9.72363 4.90137C9.45809 4.90137 9.2122 4.81088 9.01172 4.6543L8.83301 4.51465L8.71387 4.31641C8.60092 4.12858 8.53521 3.90579 8.53516 3.66602C8.53516 2.97153 9.08159 2.42969 9.72363 2.42969ZM20.834 0.5C21.4757 0.500268 22.0225 1.04244 22.0225 1.73633C22.0223 2.43053 21.4758 2.97239 20.834 2.97266C20.5755 2.97266 20.335 2.88593 20.1377 2.7373L19.9561 2.59961L19.835 2.40625C19.7149 2.21351 19.6446 1.984 19.6445 1.73633C19.6445 1.04184 20.1919 0.5 20.834 0.5ZM2.62109 13.0205H5.71582V18.5H2.62109V13.0205ZM8.17676 9.04004H11.2705V18.5H8.17676V9.04004ZM13.7305 11.5566H16.8242V18.5H13.7305V11.5566ZM19.2852 7.03027H22.3789V18.5H19.2852V7.03027Z" stroke="#2D60FF"/>
</svg>
